<?xml version="1.0" standalone="no"?>
<!DOCTYPE svg PUBLIC "-//W3C//DTD SVG 20010904//EN"
 "http://www.w3.org/TR/2001/REC-SVG-20010904/DTD/svg10.dtd">
<svg version="1.0" xmlns="http://www.w3.org/2000/svg"
 width="420pt" height="420pt" viewBox="0 0 122.880000 122.880000"
 preserveAspectRatio="xMidYMid meet">
<metadata>
Created by potrace 1.16, written by Peter Selinger 2001-2019
</metadata>
<g transform="translate(0.000000,122.880000) scale(0.024000,-0.024000)"
fill="#000000" stroke="none">
<path d="M3180 5099 c-96 -43 -156 -112 -185 -211 -14 -49 -16 -117 -13 -540
3 -471 4 -484 25 -530 30 -66 96 -133 162 -165 l56 -28 345 -5 345 -5 259
-207 c249 -201 260 -208 303 -208 100 0 113 28 113 249 l0 169 43 7 c105 17
201 86 247 180 l25 50 0 520 0 520 -27 51 c-15 28 -50 72 -78 97 -89 80 -51
77 -859 77 -698 0 -717 -1 -761 -21z m1472 -228 l33 -29 3 -452 c3 -487 2
-496 -50 -529 -13 -8 -58 -16 -103 -18 -111 -6 -123 -9 -145 -46 -17 -27 -20
-50 -20 -145 l0 -113 -172 139 c-95 76 -180 142 -188 148 -8 5 -175 11 -372
14 -342 5 -358 6 -385 26 -15 11 -33 36 -40 55 -15 44 -18 846 -3 901 6 20 22
46 37 58 25 20 36 20 699 20 l674 0 32 -29z"/>
<path d="M3410 4370 l0 -110 110 0 110 0 0 110 0 110 -110 0 -110 0 0 -110z"/>
<path d="M3840 4370 l0 -110 110 0 110 0 0 110 0 110 -110 0 -110 0 0 -110z"/>
<path d="M4260 4370 l0 -110 110 0 110 0 0 110 0 110 -110 0 -110 0 0 -110z"/>
<path d="M410 4888 c-74 -29 -150 -106 -178 -181 -21 -56 -22 -71 -22 -547 0
-467 1 -492 20 -544 40 -105 142 -188 252 -202 l48 -7 0 -176 c0 -194 3 -207
62 -237 60 -31 81 -20 362 205 l262 210 345 3 c342 3 344 3 394 28 66 32 121
90 154 159 l26 56 0 505 0 505 -26 56 c-33 69 -89 127 -155 160 l-49 24 -720
2 c-711 2 -721 2 -775 -19z m1445 -213 c61 -29 60 -24 60 -515 0 -491 1 -486
-60 -515 -28 -13 -88 -15 -379 -15 l-345 0 -188 -150 -188 -150 -5 121 -5 121
-33 29 c-30 27 -38 29 -113 29 -92 0 -131 15 -154 60 -22 43 -23 896 0 940 32
61 8 59 723 60 570 0 658 -2 687 -15z"/>
<path d="M640 4160 l0 -110 110 0 110 0 0 110 0 110 -110 0 -110 0 0 -110z"/>
<path d="M1060 4160 l0 -110 110 0 110 0 0 110 0 110 -110 0 -110 0 0 -110z"/>
<path d="M1490 4160 l0 -110 110 0 110 0 0 110 0 110 -110 0 -110 0 0 -110z"/>
<path d="M1060 3183 c1 -85 48 -178 136 -275 73 -79 74 -80 74 -134 0 -53 -1
-55 -70 -130 -76 -82 -105 -130 -126 -209 -27 -98 -30 -95 101 -95 l115 0 0
30 c0 24 16 47 71 107 116 125 155 235 129 366 -16 83 -42 130 -110 202 -71
75 -90 103 -90 132 0 23 -2 23 -115 23 -103 0 -115 -2 -115 -17z"/>
<path d="M1700 3183 c1 -85 48 -178 136 -275 73 -79 74 -80 74 -134 0 -53 -1
-55 -70 -130 -76 -82 -105 -130 -126 -209 -27 -98 -30 -95 101 -95 l115 0 0
30 c0 24 16 47 71 107 116 125 155 235 129 366 -16 83 -42 130 -110 202 -71
75 -90 103 -90 132 0 23 -2 23 -115 23 -103 0 -115 -2 -115 -17z"/>
<path d="M3296 3169 c-4 -20 -31 -58 -75 -104 -38 -41 -81 -98 -97 -131 -25
-53 -28 -70 -29 -159 0 -88 3 -107 27 -158 16 -34 55 -87 91 -125 69 -72 87
-99 87 -131 0 -20 5 -21 111 -21 l112 0 -6 59 c-7 80 -44 150 -127 237 -106
112 -106 154 1 272 81 88 121 163 127 238 l4 54 -110 0 -109 0 -7 -31z"/>
<path d="M3936 3169 c-4 -20 -31 -58 -75 -104 -38 -41 -81 -98 -97 -131 -25
-53 -28 -70 -29 -159 0 -88 3 -107 27 -158 16 -34 55 -87 91 -125 69 -72 87
-99 87 -131 0 -20 5 -21 111 -21 l112 0 -6 59 c-7 80 -44 150 -127 237 -106
112 -106 154 1 272 81 88 121 163 127 238 l4 54 -110 0 -109 0 -7 -31z"/>
<path d="M454 2209 c-26 -27 -29 -38 -32 -109 l-4 -78 -33 -6 c-52 -10 -167
-71 -218 -116 -63 -56 -119 -143 -147 -229 -21 -66 -22 -84 -17 -224 6 -179
26 -270 88 -396 72 -145 195 -246 354 -286 32 -8 74 -15 93 -15 26 0 40 -8 60
-32 15 -18 58 -65 96 -105 l69 -73 -287 0 c-315 0 -331 -3 -361 -60 -42 -81
15 -261 114 -360 25 -25 78 -62 116 -81 l70 -34 970 0 970 0 65 31 c36 17 83
46 103 64 l37 32 37 -32 c20 -18 67 -47 103 -64 l65 -31 970 0 970 0 70 34
c38 19 91 56 116 81 99 99 156 279 114 360 -30 57 -46 60 -361 60 l-287 0 69
73 c38 40 81 87 96 105 20 24 34 32 60 32 19 0 61 7 93 15 159 40 282 141 354
286 62 126 82 217 88 396 5 140 4 158 -17 224 -28 86 -84 173 -147 229 -51 45
-166 106 -218 116 l-33 6 -4 78 c-3 71 -6 82 -32 109 l-30 31 -238 0 -238 0 0
-110 0 -110 161 0 161 0 -5 -422 c-5 -479 -7 -489 -83 -647 -39 -80 -60 -109
-138 -186 -100 -101 -172 -147 -301 -191 -72 -25 -94 -28 -215 -29 -115 0
-146 4 -210 23 -209 66 -367 199 -459 386 -74 151 -74 150 -78 634 l-4 432
480 0 481 0 0 110 0 110 -558 0 c-609 0 -586 2 -611 -58 -9 -22 -11 -161 -9
-548 4 -497 5 -522 26 -597 45 -161 134 -318 247 -433 l63 -64 -548 0 -548 0
63 64 c113 115 202 272 247 433 21 75 22 100 26 597 2 387 0 526 -9 548 -25
60 3 58 -666 58 l-613 0 0 -110 0 -110 536 0 535 0 -4 -432 c-4 -484 -4 -483
-78 -634 -92 -187 -250 -320 -459 -386 -64 -20 -95 -23 -210 -22 -117 0 -145
4 -212 26 -125 41 -203 91 -304 193 -78 77 -99 106 -138 186 -76 158 -78 168
-83 647 l-5 422 111 0 111 0 0 110 0 110 -188 0 -188 0 -30 -31z m-31 -746 c3
-258 8 -341 20 -388 24 -91 24 -91 -48 -43 -99 66 -161 213 -172 411 -6 119 3
164 50 234 28 42 114 113 137 113 5 0 10 -147 13 -327z m4343 295 c55 -37 108
-110 125 -171 16 -57 5 -223 -21 -322 -24 -92 -70 -175 -120 -215 -41 -32 -80
-53 -86 -47 -2 2 3 33 12 68 13 51 18 130 21 392 3 180 8 327 13 327 4 0 30
-15 56 -32z m-2356 -1447 c0 -14 -61 -62 -97 -78 -45 -18 -1807 -20 -1850 -1
-43 18 -82 47 -93 69 -11 19 5 19 1015 19 610 0 1025 -4 1025 -9z m2341 -9
c-5 -10 -29 -32 -52 -48 l-42 -29 -901 -3 c-592 -2 -913 1 -936 7 -36 11 -110
65 -110 82 0 5 402 9 1025 9 989 0 1025 -1 1016 -18z"/>
</g>
</svg>
