<?xml version="1.0" encoding="UTF-8"?>
<svg viewBox="0 0 640 480" xmlns="http://www.w3.org/2000/svg">
 <path d="m567.39 224.49s-4.8635 1.5017-8.9188 0.44536c-4.0552-1.0563-24.717-17.939-24.54-28.293 0.17694-10.354 3.2084-35.618 6.1959-42.045 2.9876-6.4272 18.253-21.973 22.931-22.352 4.6775-0.37883 10.604 0.98755 10.604 0.98755l-0.8084 2.558 2.4341 1.5569-7.8981 87.141z" fill="#520" stroke="#2b1100" stroke-width="14.4"/>
 <path d="m568 141.22c-0.17871 1.772-1.6756 3.0722-3.3434 2.904s-2.875-1.7411-2.6963-3.5131c0.17871-1.772 1.6757-3.0722 3.3434-2.904 1.6678 0.16818 2.875 1.7411 2.6963 3.5131z" fill="#fff"/>
 <path d="m579.37 135.35s4.8635-1.5017 8.9188-0.44536c4.0552 1.0563 24.717 17.939 24.54 28.293-0.17694 10.354-3.2084 35.618-6.1959 42.045-2.9875 6.4272-18.253 21.973-22.931 22.352-4.6775 0.37883-10.604-0.98753-10.604-0.98753l0.8083-2.558-2.4341-1.5569 7.8981-87.141z" fill="#520" stroke="#2b1100" stroke-width="14.4"/>
 <path d="m565.95 206.98s-4.3283 6.9992-7.0642 5.77c-2.736-1.2292-6.7534-4.8756-8.092-6.7265s-4.279-6.7233-5.0895-8.1396c-0.81042-1.4164-5.8287-4.5917-6.0158-6.5171-0.1872-1.9254-0.95795-5.6257-1.126-7.7399-0.16815-2.1142-0.35529-4.0396-0.35529-4.0396s-1.4227 8.4361-1.18 11.702c0.24255 3.2657 0.52338 6.1539 1.1641 7.3624 0.64075 1.2086 5.843 10.122 5.843 10.122s4.8484 2.9675 5.2814 4.3458c0.43298 1.3783 6.0539 6.1396 7.318 6.8391 1.264 0.69946 5.5289 1.8922 6.322 1.5908 0.79297-0.30133 1.8509-1.3386 1.8509-1.3386l1.1436-13.231z" fill="#2b1100"/>
 <path d="m580.53 152.5s4.3283-6.9992 7.0642-5.7699c2.736 1.2292 6.7534 4.8756 8.092 6.7265s4.279 6.7233 5.0895 8.1396c0.81042 1.4163 5.8287 4.5916 6.0158 6.5171 0.1872 1.9255 0.95795 5.6257 1.126 7.7399 0.16809 2.1142 0.35529 4.0397 0.35529 4.0397s1.4227-8.4362 1.1801-11.702c-0.24268-3.2657-0.52332-6.1539-1.1641-7.3624-0.64075-1.2086-5.8429-10.122-5.8429-10.122s-4.8486-2.9676-5.2815-4.3458c-0.43298-1.3783-6.0539-6.1396-7.3179-6.8391-1.2641-0.69945-5.529-1.8922-6.322-1.5909-0.79297 0.30136-1.8509 1.3386-1.8509 1.3386l-1.1436 13.231z" fill="#ffb380"/>
 <path d="m342.25 71.499s0.74237 3.7265-0.35278 6.6568c-1.0952 2.9302-15.215 16.979-22.89 16.054-7.6748-0.92486-26.202-5.1119-30.746-7.8229-4.5436-2.711-14.917-15.238-14.84-18.74 0.077148-3.5023 1.546-7.7985 1.546-7.7985l1.8375 0.7963 1.3426-1.6881 64.102 12.543z" fill="#520" stroke="#2b1100" stroke-width="14.4"/>
 <path d="m280.46 64.662c1.3022 0.2685 2.1529 1.4797 1.9002 2.7052-0.25272 1.2255-1.5132 2.0014-2.8153 1.7329-1.3022-0.2685-2.1529-1.4797-1.9002-2.7052 0.25272-1.2256 1.5132-2.0014 2.8153-1.7329z" fill="#fff"/>
 <path d="m276.97 55.773s-0.74237-3.7265 0.35278-6.6568 15.215-16.979 22.89-16.054c7.6748 0.92486 26.202 5.1119 30.746 7.8229 4.5436 2.711 14.917 15.238 14.84 18.74-0.077179 3.5023-1.546 7.7985-1.546 7.7985l-1.8375-0.7962-1.3427 1.6881-64.102-12.543z" fill="#520" stroke="#2b1100" stroke-width="14.4"/>
 <path d="m329.13 71.228s4.8656 3.7504 3.7432 5.6878-4.1379 4.6411-5.6149 5.4932c-1.477 0.85214-5.3203 2.6622-6.4341 3.1555-1.1138 0.49327-3.8562 3.9762-5.3003 3.9676-1.4441-0.008598-4.2508 0.28018-5.8336 0.24299-1.5828-0.037201-3.0269-0.045792-3.0269-0.045792s6.1553 1.703 8.5988 1.7731c2.4435 0.070091 4.6097 0.082993 5.5562-0.30019 0.94653-0.38317 7.964-3.563 7.964-3.563s2.5751-3.3729 3.6317-3.5888c1.0566-0.21589 5.0229-4.0248 5.6392-4.9099 0.61627-0.88504 1.8288-3.9605 1.6658-4.5725-0.16296-0.61195-0.85211-1.477-0.85211-1.477l-9.7369-1.8632z" fill="#2b1100"/>
 <path d="m289.79 56.225s-4.8656-3.7504-3.7431-5.6878c1.1224-1.9374 4.1379-4.6411 5.6149-5.4932 1.477-0.85214 5.3203-2.6622 6.4341-3.1555 1.1138-0.49327 3.8562-3.9762 5.3003-3.9676 1.4441 0.008591 4.2508-0.28019 5.8336-0.24299 1.5828 0.037189 3.0269 0.045792 3.0269 0.045792s-6.1552-1.703-8.5988-1.7731c-2.4435-0.070087-4.6097-0.082989-5.5562 0.30018-0.94653 0.38319-7.964 3.563-7.964 3.563s-2.5751 3.3729-3.6317 3.5887c-1.0566 0.21588-5.023 4.0248-5.6392 4.9099-0.61624 0.88504-1.8288 3.9605-1.6658 4.5725 0.16302 0.61196 0.85217 1.477 0.85217 1.477l9.7369 1.8632z" fill="#ffb380"/>
 <path d="m525.57 82.22s1.0398 5.2195-0.49414 9.3238-21.31 23.781-32.06 22.486c-10.75-1.2954-36.7-7.16-43.064-10.957-6.364-3.7971-20.894-21.343-20.786-26.249 0.10809-4.9056 2.1653-10.923 2.1653-10.923l2.5738 1.1153 1.8805-2.3644 89.784 17.568z" fill="#520" stroke="#2b1100" stroke-width="14.4"/>
 <path d="m439.02 72.644c1.8238 0.37608 3.0154 2.0725 2.6614 3.789-0.35391 1.7165-2.1194 2.8032-3.9432 2.4272-1.8238-0.37608-3.0154-2.0725-2.6615-3.789 0.35394-1.7166 2.1194-2.8032 3.9432-2.4272z" fill="#fff"/>
 <path d="m434.14 60.194s-1.0398-5.2195 0.49411-9.3238 21.31-23.781 32.06-22.486c10.75 1.2954 36.7 7.16 43.064 10.957 6.364 3.7971 20.894 21.343 20.786 26.249-0.10809 4.9055-2.1653 10.923-2.1653 10.923l-2.5737-1.1153-1.8805 2.3644-89.784-17.568z" fill="#520" stroke="#2b1100" stroke-width="14.4"/>
 <path d="m507.2 81.841s6.8149 5.253 5.2427 7.9666c-1.5721 2.7136-5.7957 6.5005-7.8644 7.6941s-7.4519 3.7288-9.012 4.4197-5.4012 5.5693-7.4239 5.5572c-2.0227-0.012024-5.9539 0.39244-8.1708 0.34036-2.2169-0.052109-4.2396-0.064148-4.2396-0.064148s8.6213 2.3853 12.044 2.4835c3.4225 0.09816 6.4565 0.11621 7.7822-0.42049 1.3258-0.53667 11.155-4.9904 11.155-4.9904s3.6067-4.7242 5.0867-5.0266 7.0354-5.6374 7.8986-6.877c0.8631-1.2396 2.5614-5.5473 2.3331-6.4044-0.22827-0.85715-1.1935-2.0687-1.1935-2.0687l-13.638-2.6097z" fill="#2b1100"/>
 <path d="m452.1 60.827s-6.8149-5.253-5.2428-7.9666 5.7958-6.5005 7.8645-7.6941c2.0688-1.1936 7.4519-3.7288 9.012-4.4197s5.4012-5.5693 7.4239-5.5573c2.0226 0.012054 5.9539-0.39243 8.1708-0.34034 2.2169 0.052101 4.2396 0.064156 4.2396 0.064156s-8.6213-2.3853-12.044-2.4834c-3.4225-0.09819-6.4564-0.11625-7.7822 0.42044s-11.155 4.9904-11.155 4.9904-3.6068 4.7242-5.0868 5.0266c-1.48 0.30239-7.0354 5.6374-7.8986 6.877-0.86316 1.2396-2.5614 5.5473-2.3332 6.4044 0.22827 0.85714 1.1936 2.0687 1.1936 2.0687l13.638 2.6096z" fill="#ffb380"/>
 <path d="m284.19 264.16s-5.322 2.6538-10.197 2.2053c-4.8753-0.44855-31.897-15.992-33.657-27.961-1.7602-11.97-3.058-41.669-0.83313-49.646 2.2249-7.9762 16.875-28.794 22.195-30.118 5.3206-1.324 12.412-0.87317 12.412-0.87317l-0.4466 3.1023 3.1013 1.3331 7.4257 101.96z" fill="#520" stroke="#2b1100" stroke-width="14.4"/>
 <path d="m269.1 168.03c0.13019 2.0767-1.3488 3.8596-3.3035 3.9821-1.9546 0.12248-3.6446-1.4618-3.7747-3.5385-0.13016-2.0768 1.3489-3.8596 3.3035-3.9821s3.6446 1.4618 3.7747 3.5385z" fill="#fff"/>
 <path d="m281.09 159.12s5.3219-2.6538 10.197-2.2053c4.8753 0.44852 31.897 15.992 33.657 27.961 1.7601 11.97 3.058 41.669 0.83313 49.646-2.2249 7.9762-16.875 28.794-22.195 30.118-5.3205 1.324-12.412 0.87317-12.412 0.87317l0.4466-3.1023-3.1014-1.3331-7.4256-101.96z" fill="#520" stroke="#2b1100" stroke-width="14.4"/>
 <path d="m279.2 244.24s-3.6621 8.8899-7.0494 7.9918c-3.3872-0.89804-8.7103-4.3396-10.605-6.2194-1.8943-1.8798-6.2085-6.939-7.4114-8.4181-1.2031-1.4791-7.5905-4.1877-8.1715-6.3719-0.58099-2.1842-2.1715-6.3038-2.7664-8.7092-0.59482-2.4054-1.1758-4.5896-1.1758-4.5896s-0.039825 9.9953 0.85934 13.714c0.89923 3.7187 1.7708 6.995 2.7387 8.2668 0.9679 1.2717 8.656 10.561 8.656 10.561s6.1524 2.5013 6.913 4.0081c0.76056 1.5068 8.1437 5.9295 9.7337 6.496 1.5899 0.56656 6.7328 1.1325 7.5898 0.6347 0.85712-0.49783 1.8799-1.8943 1.8799-1.8943l-1.1914-15.47z" fill="#2b1100"/>
 <path d="m285.68 178.66s3.6621-8.8899 7.0494-7.9919c3.3872 0.89806 8.7103 4.3396 10.605 6.2194 1.8943 1.8799 6.2085 6.939 7.4115 8.4181s7.5904 4.1877 8.1714 6.3719c0.58102 2.1842 2.1716 6.3037 2.7664 8.7092 0.59482 2.4054 1.1758 4.5896 1.1758 4.5896s0.039886-9.9953-0.85934-13.714c-0.89917-3.7187-1.7707-6.9951-2.7386-8.2668-0.96793-1.2717-8.6561-10.561-8.6561-10.561s-6.1524-2.5013-6.913-4.0081c-0.76062-1.5068-8.1438-5.9295-9.7337-6.4961-1.59-0.56656-6.7328-1.1326-7.5899-0.63472-0.85706 0.49785-1.8798 1.8943-1.8798 1.8943l1.1914 15.47z" fill="#ffb380"/>
 <path d="m388.62 161.47s-1.094-5.2104 0.39807-9.3317 21.072-24.008 31.838-22.823 36.785 6.7837 43.19 10.516c6.4051 3.7326 21.12 21.134 21.063 26.042-0.057495 4.9081-2.0533 10.949-2.0533 10.949l-2.586-1.0891-1.8567 2.3845-89.992-16.647z" fill="#520" stroke="#2b1100" stroke-width="14.4"/>
 <path d="m475.29 170.15c-1.8283-0.35736-3.0377-2.042-2.7014-3.7627 0.3364-1.7207 2.0912-2.8259 3.9194-2.4686 1.8283 0.35739 3.0377 2.042 2.7014 3.7627-0.3364 1.7207-2.0912 2.8259-3.9194 2.4686z" fill="#fff"/>
 <path d="m480.3 182.56s1.094 5.2104-0.3981 9.3317c-1.492 4.1213-21.072 24.008-31.838 22.823-10.766-1.1849-36.785-6.7837-43.19-10.516-6.4051-3.7326-21.12-21.134-21.063-26.042 0.057556-4.9082 2.0534-10.949 2.0534-10.949l2.586 1.089 1.8567-2.3845 89.992 16.647z" fill="#520" stroke="#2b1100" stroke-width="14.4"/>
 <path d="m407 161.66s-6.8711-5.1843-5.3266-7.915c1.5446-2.7306 5.7305-6.5622 7.7876-7.7775s7.4157-3.8068 8.9692-4.514c1.5534-0.7072 5.3454-5.6267 7.3687-5.6355 2.0235-0.00882 5.9516-0.45396 8.1698-0.42471 2.2182 0.029251 4.2416 0.020432 4.2416 0.020432s-8.6486-2.2971-12.073-2.36c-3.4246-0.062912-6.4597-0.049698-7.7803 0.50082-1.3206 0.55054-11.107 5.107-11.107 5.107s-3.5592 4.7628-5.0365 5.0805c-1.4773 0.31775-6.9794 5.7116-7.83 6.9605-0.85065 1.2489-2.505 5.5754-2.2678 6.4304 0.23718 0.85504 1.2153 2.0571 1.2153 2.0571l13.669 2.4698z" fill="#2b1100"/>
 <path d="m462.33 182.11s6.8712 5.1843 5.3266 7.915c-1.5446 2.7306-5.7305 6.5622-7.7875 7.7775-2.0571 1.2153-7.4157 3.8068-8.9691 4.514-1.5534 0.70718-5.3455 5.6267-7.3688 5.6355-2.0234 0.00882-5.9516 0.45396-8.1697 0.42471-2.2181-0.029251-4.2416-0.020432-4.2416-0.020432s8.6486 2.2971 12.073 2.36c3.4245 0.062897 6.4596 0.049683 7.7803-0.50082 1.3206-0.55054 11.107-5.107 11.107-5.107s3.5592-4.7628 5.0365-5.0806c1.4773-0.31772 6.9794-5.7116 7.83-6.9605 0.85062-1.2489 2.505-5.5754 2.2678-6.4304-0.23724-0.85504-1.2152-2.0571-1.2152-2.0571l-13.669-2.4698z" fill="#ffb380"/>
 <path d="m410.92 329.2s-5.3362 9.0184-5.1637 17.644c0.17255 8.6252 24.078 58.08 44.893 62.686 20.815 4.6052 72.85 10.637 87.149 7.7338 14.3-2.903 52.737-26.022 55.736-35.206 2.999-9.1838 3.1022-21.705 3.1022-21.705l-5.5089 0.3931-1.9513-5.6191-178.26-25.927z" fill="#520" stroke="#2b1100" stroke-width="14.4"/>
 <path d="m577.96 367.87c-3.6336-0.491-6.9537 1.8833-7.416 5.3031-0.46204 3.4198 2.109 6.5902 5.7426 7.0811 3.6336 0.491 6.9537-1.8833 7.4158-5.3031s-2.1088-6.5902-5.7424-7.0812z" fill="#fff"/>
 <path d="m595.14 347.92s5.3362-9.0184 5.1637-17.644c-0.17248-8.6253-24.078-58.08-44.893-62.686-20.815-4.6052-72.85-10.637-87.149-7.7338-14.3 2.903-52.737 26.022-55.736 35.206-2.999 9.1838-3.1022 21.705-3.1022 21.705l5.5089-0.3931 1.9513 5.6191 178.26 25.927z" fill="#520" stroke="#2b1100" stroke-width="14.4"/>
 <path d="m445.31 340.49s-16.087 5.3136-14.936 11.38c1.1506 6.0666 6.527 15.857 9.5917 19.424 3.0647 3.5667 11.412 11.788 13.859 14.089 2.4476 2.3011 6.4015 13.87 10.167 15.166 3.7655 1.297 10.805 4.6126 14.957 5.9618 4.1525 1.3493 7.9181 2.6462 7.9181 2.6462s-17.572-1.1922-23.994-3.2422c-6.4224-2.05-12.071-3.9955-14.183-5.8573-2.1128-1.8618-17.468-16.547-17.468-16.547s-3.6191-11.129-6.1714-12.656c-2.5522-1.5271-9.3929-15.062-10.188-17.928-0.79489-2.8659-1.1402-11.976-0.15695-13.42 0.98315-1.4435 3.5666-3.0648 3.5666-3.0648l27.038 4.0477z" fill="#2b1100"/>
 <path d="m561.37 337.38s16.087-5.3137 14.936-11.38c-1.1505-6.0666-6.5269-15.857-9.5917-19.424-3.0646-3.5667-11.412-11.788-13.859-14.089-2.4476-2.3011-6.4015-13.869-10.167-15.166-3.7654-1.297-10.805-4.6126-14.957-5.9618-4.1526-1.3493-7.9181-2.6462-7.9181-2.6462s17.572 1.1923 23.994 3.2423c6.4224 2.05 12.071 3.9954 14.184 5.8573 2.1128 1.8618 17.468 16.547 17.468 16.547s3.6192 11.129 6.1714 12.656c2.5521 1.5271 9.3929 15.062 10.188 17.928 0.79498 2.8659 1.1402 11.976 0.15704 13.42-0.98328 1.4434-3.5668 3.0647-3.5668 3.0647l-27.038-4.0476z" fill="#ffb380"/>
 <path d="m268.77 425.41s-6.7783 0.47302-11.728-2.1331c-4.9498-2.6062-26.672-30.833-23.294-44.237 3.3784-13.404 15.001-45.32 20.838-52.766 5.8377-7.4457 30.407-23.01 36.602-22.08 6.1952 0.9299 13.483 4.5081 13.483 4.5081l-1.8285 3.0792 2.6904 2.7637-36.764 110.87z" fill="#520" stroke="#2b1100" stroke-width="14.4"/>
 <path d="m294.89 317.35c-0.77109 2.249-3.1122 3.4838-5.2288 2.758-2.1167-0.72583-3.2075-3.1373-2.4364-5.3863 0.77115-2.2489 3.1122-3.4838 5.2288-2.758 2.1167 0.72574 3.2075 3.1372 2.4363 5.3862z" fill="#fff"/>
 <path d="m311.44 313.18s6.7783-0.47296 11.728 2.1332c4.9498 2.6061 26.672 30.833 23.294 44.237-3.3784 13.404-15.001 45.32-20.838 52.766-5.8377 7.4457-30.408 23.01-36.602 22.08-6.1951-0.92996-13.483-4.5082-13.483-4.5082l1.8285-3.0792-2.6903-2.7638 36.764-110.87z" fill="#520" stroke="#2b1100" stroke-width="14.4"/>
 <path d="m272.22 402.2s-7.7544 7.7814-10.937 5.3518c-3.1824-2.4297-7.2955-8.3908-8.4726-11.204-1.1771-2.8129-3.5176-10.04-4.1404-12.128-0.62271-2.0874-6.1799-7.7406-5.8376-10.3 0.34222-2.5596 0.46548-7.6036 0.88986-10.403 0.42441-2.7992 0.76663-5.3589 0.76663-5.3589s-4.4146 10.533-5.0922 14.851c-0.67764 4.3185-1.191 8.158-0.72565 9.9238 0.46539 1.7658 4.5167 14.934 4.5167 14.934s5.3998 5.3316 5.5435 7.2547c0.14368 1.9231 6.002 9.8212 7.4323 11.115 1.4304 1.2936 6.6112 4.1408 7.7337 3.9902 1.1224-0.15051 2.8129-1.1771 2.8129-1.1771l5.5097-16.85z" fill="#2b1100"/>
 <path d="m307.74 335.82s7.7544-7.7814 10.937-5.3518c3.1825 2.4297 7.2956 8.3909 8.4726 11.204 1.1771 2.8129 3.5176 10.04 4.1404 12.128 0.6228 2.0874 6.18 7.7406 5.8377 10.3-0.34222 2.5596-0.46548 7.6036-0.88989 10.403-0.42441 2.7992-0.76663 5.3588-0.76663 5.3588s4.4146-10.533 5.0922-14.851c0.67767-4.3185 1.191-8.158 0.72571-9.9237-0.46539-1.7658-4.5168-14.934-4.5168-14.934s-5.3998-5.3316-5.5434-7.2548c-0.14377-1.9231-6.002-9.8211-7.4324-11.115-1.4304-1.2936-6.6112-4.1408-7.7336-3.9902-1.1224 0.15064-2.8129 1.1771-2.8129 1.1771l-5.5097 16.85z" fill="#ffb380"/>
 <path d="m129.61 221.12s-8.8513 6.1299-17.704 6.5853c-8.8523 0.45537-61.289-20.419-67.534-41.414-6.2454-20.995-16.241-73.88-14.314-88.748s22.803-55.955 31.995-59.702c9.1922-3.7467 22.017-4.7702 22.017-4.7702l9e-4 5.6746 5.9018 1.5879 39.637 180.79z" fill="#520" stroke="#2b1100" stroke-width="14.4"/>
 <path d="m77.738 52.776c0.76952 3.6878-1.4204 7.2646-4.8913 7.9889-3.4709 0.7242-6.9085-1.6783-7.6781-5.3661-0.76952-3.6879 1.4204-7.2646 4.8913-7.9889s6.9085 1.6782 7.678 5.3661z" fill="#fff"/>
 <path d="m96.92 33.698s8.8514-6.13 17.704-6.5853c8.8523-0.45536 61.289 20.419 67.534 41.414 6.2454 20.995 16.241 73.88 14.314 88.748s-22.803 55.955-31.995 59.702c-9.1922 3.7467-22.017 4.7701-22.017 4.7701l-9e-4 -5.6745-5.9018-1.588-39.637-180.79z" fill="#520" stroke="#2b1100" stroke-width="14.4"/>
 <path d="m115.52 186.71s-4.2665 16.876-10.568 16.142c-6.3017-0.7345-16.729-5.5268-20.609-8.4063-3.88-2.8794-12.917-10.831-15.455-13.171-2.5377-2.3397-14.683-5.5439-16.289-9.3079-1.6052-3.764-5.5192-10.735-7.2064-14.892-1.6872-4.1568-3.2924-7.9208-3.2924-7.9208s2.5099 17.922 5.0817 24.353c2.5717 6.4316 4.9795 12.078 7.0425 14.106 2.0629 2.0289 18.239 16.689 18.239 16.689s11.671 2.8933 13.423 5.3969c1.7521 2.5036 16.125 8.5222 19.12 9.127 2.9954 0.60461 12.358 0.29063 13.765-0.82278 1.4073-1.1134 2.8795-3.88 2.8795-3.88l-6.1301-27.414z" fill="#2b1100"/>
 <path d="m110.19 67.538s4.2665-16.876 10.568-16.142c6.3017 0.7345 16.729 5.5269 20.609 8.4063 3.88 2.8795 12.917 10.831 15.455 13.171 2.5377 2.3398 14.683 5.5439 16.289 9.3078 1.6052 3.764 5.5192 10.735 7.2064 14.892 1.6872 4.1568 3.2924 7.9208 3.2924 7.9208s-2.5099-17.922-5.0816-24.353c-2.5718-6.4316-4.9795-12.078-7.0425-14.106-2.0629-2.0288-18.239-16.689-18.239-16.689s-11.671-2.8933-13.423-5.3969c-1.7521-2.5036-16.125-8.5223-19.12-9.127-2.9954-0.60462-12.358-0.29063-13.765 0.8227-1.4073 1.1135-2.8794 3.88-2.8794 3.88l6.1301 27.414z" fill="#ffb380"/>
 <path d="m129.72 419.21s-6.2391 4.7072-12.646 5.2987c-6.4071 0.59143-45.055-13.002-50.204-28.045-5.1492-15.043-13.96-53.106-13-63.947 0.95898-10.84 14.888-41.257 21.445-44.246 6.5566-2.9887 15.828-4.1094 15.828-4.1094l0.1681 4.1157 4.3274 0.9777 34.083 129.95z" fill="#520" stroke="#2b1100" stroke-width="14.4"/>
 <path d="m87.136 298.64c0.66698 2.6522-0.81586 5.3109-3.312 5.9387-2.4961 0.62778-5.0603-1.0134-5.7272-3.6655-0.66693-2.6521 0.8159-5.311 3.312-5.9387 2.4961-0.62772 5.0603 1.0134 5.7272 3.6655z" fill="#fff"/>
 <path d="m100.49 284.24s6.2391-4.7072 12.646-5.2987c6.4071-0.59143 45.055 13.002 50.204 28.045 5.1492 15.043 13.959 53.106 13 63.947-0.95902 10.84-14.888 41.257-21.445 44.246-6.5566 2.9887-15.828 4.1094-15.828 4.1094l-0.1681-4.1158-4.3275-0.9776-34.083-129.95z" fill="#520" stroke="#2b1100" stroke-width="14.4"/>
 <path d="m118.49 394.67s-2.5966 12.366-7.1889 12.019c-4.5923-0.3468-12.297-3.515-15.196-5.4891-2.8992-1.974-9.6886-7.4747-11.598-9.0968-1.9096-1.6221-10.814-3.5878-12.089-6.2704-1.2753-2.6827-4.3199-7.6235-5.6662-10.589-1.3463-2.9652-2.6217-5.6478-2.6217-5.6478s2.3492 12.924 4.4043 17.513c2.055 4.589 3.968 8.613 5.5242 10.024 1.5561 1.4107 13.721 11.566 13.721 11.566s8.5503 1.7542 9.895 3.5184 11.947 5.7055 14.137 6.0557c2.1904 0.35019 8.9715-0.15372 9.9594-1.0028 0.98782-0.84909 1.974-2.8991 1.974-2.8991l-5.255-19.702z" fill="#2b1100"/>
 <path d="m111.11 308.39s2.5966-12.366 7.1889-12.019c4.5923 0.3468 12.297 3.515 15.196 5.489 2.8991 1.974 9.6886 7.4748 11.598 9.0969 1.9096 1.6221 10.814 3.5878 12.089 6.2704 1.2753 2.6827 4.3198 7.6235 5.6662 10.589 1.3463 2.9652 2.6217 5.6478 2.6217 5.6478s-2.3492-12.924-4.4043-17.513c-2.055-4.589-3.968-8.613-5.5241-10.024-1.5561-1.4107-13.721-11.566-13.721-11.566s-8.5503-1.7542-9.895-3.5185c-1.3447-1.7642-11.947-5.7055-14.137-6.0556-2.1904-0.35019-8.9715 0.15372-9.9593 1.0028-0.98782 0.84909-1.974 2.8991-1.974 2.8991l5.255 19.702z" fill="#ffb380"/>
</svg>
