<?xml version="1.0" encoding="UTF-8" standalone="no"?>
<svg
   xmlns:dc="http://purl.org/dc/elements/1.1/"
   xmlns:cc="http://creativecommons.org/ns#"
   xmlns:rdf="http://www.w3.org/1999/02/22-rdf-syntax-ns#"
   xmlns:svg="http://www.w3.org/2000/svg"
   xmlns="http://www.w3.org/2000/svg"
   viewBox="0 0 2560 2560"
   height="2560"
   width="2560"
   xml:space="preserve"
   id="svg2"
   version="1.1"><metadata
     id="metadata8"><rdf:RDF><cc:Work
         rdf:about=""><dc:format>image/svg+xml</dc:format><dc:type
           rdf:resource="http://purl.org/dc/dcmitype/StillImage" /></cc:Work></rdf:RDF></metadata><defs
     id="defs6"><clipPath
       id="clipPath18"
       clipPathUnits="userSpaceOnUse"><path
         id="path16"
         d="M 0,1920 H 1920 V 0 H 0 Z" /></clipPath></defs><g
     transform="matrix(1.3333333,0,0,-1.3333333,0,2560)"
     id="g10"><g
       id="g12"><g
         clip-path="url(#clipPath18)"
         id="g14"><g
           transform="translate(1572.709,73.7705)"
           id="g20"><path
             id="path22"
             style="fill:#d8d8d8;fill-opacity:1;fill-rule:nonzero;stroke:none"
             d="m 0,0 c 0,-14.433 -11.699,-26.132 -26.13,-26.132 h -1072.295 c -14.432,0 -26.131,11.699 -26.131,26.132 0,14.431 11.699,26.131 26.131,26.131 H -26.13 C -11.699,26.131 0,14.431 0,0" /></g><g
           transform="translate(1318.707,147.0752)"
           id="g24"><path
             id="path26"
             style="fill:#1a1a1a;fill-opacity:1;fill-rule:nonzero;stroke:none"
             d="m 0,0 -194.494,-67.359 -130.123,375.728 194.488,67.348 z" /></g><g
           transform="translate(858.5972,81.748)"
           id="g28"><path
             id="path30"
             style="fill:#333333;fill-opacity:1;fill-rule:nonzero;stroke:none"
             d="m 0,0 -201.821,11.982 23.562,396.92 201.821,-11.979 z" /></g><g
           transform="translate(1277.0303,530.6563)"
           id="g32"><path
             id="path34"
             style="fill:#333333;fill-opacity:1;fill-rule:nonzero;stroke:none"
             d="m 0,0 c -6.865,-18.143 -15.187,-35.559 -24.897,-52.067 -60.84,-103.769 -174.853,-172.022 -303.589,-168.312 l -34.023,0.977 c -128.727,3.708 -238.635,78.408 -293.397,185.495 -8.751,17.039 -16.05,34.915 -21.858,53.424 z" /></g><g
           transform="translate(411.1606,805.1309)"
           id="g36"><path
             id="path38"
             style="fill:#eac7a2;fill-opacity:1;fill-rule:nonzero;stroke:none"
             d="m 0,0 c -26.727,12.734 -58.714,1.392 -71.451,-25.335 -12.737,-26.74 -1.389,-58.722 25.338,-71.457 l 75.064,-35.763 45.368,97.14 z" /></g><g
           transform="translate(660.2993,686.4365)"
           id="g40"><path
             id="path42"
             style="fill:#870b14;fill-opacity:1;fill-rule:nonzero;stroke:none"
             d="m 0,0 -108.274,51.581 -45.365,-97.145 107.534,-51.219 C -19.381,-109.53 12.603,-98.178 25.34,-71.449 38.08,-44.722 26.724,-12.726 0,0" /></g><g
           transform="translate(485.48,769.7158)"
           id="g44"><path
             id="path46"
             style="fill:#b22630;fill-opacity:1;fill-rule:nonzero;stroke:none"
             d="m 0,0 -52.883,-115.463 72.091,-18.423 47.337,102.188 z" /></g><g
           transform="translate(1535.377,1287.7256)"
           id="g48"><path
             id="path50"
             style="fill:#42210b;fill-opacity:1;fill-rule:nonzero;stroke:none"
             d="m 0,0 c 0,-322.883 -261.747,-584.64 -584.637,-584.64 -322.881,0 -584.635,261.757 -584.635,584.64 0,322.889 261.754,584.636 584.635,584.636 C -261.747,584.636 0,322.889 0,0" /></g><g
           transform="translate(1312.1094,1105.2949)"
           id="g52"><path
             id="path54"
             style="fill:#ffd9ab;fill-opacity:1;fill-rule:nonzero;stroke:none"
             d="m 0,0 -13.375,-464.493 c -1.114,-38.738 -8.718,-75.8 -21.704,-110.146 l -677.764,19.517 c -10.923,35.038 -16.388,72.475 -15.277,111.201 l 13.373,464.486 c 5.411,187.954 162.184,336.016 350.136,330.607 l 34.014,-0.987 C -142.584,344.777 5.407,187.939 0,0" /></g><g
           transform="translate(1170.5811,1411.1108)"
           id="g56"><path
             id="path58"
             style="fill:#42210b;fill-opacity:1;fill-rule:nonzero;stroke:none"
             d="m 0,0 c 20.231,-96.86 -96.056,-203.079 -259.731,-237.266 -163.681,-34.187 -312.765,16.615 -332.994,113.47 -20.226,96.848 96.056,203.074 259.732,237.26 C -169.312,147.657 -20.224,96.85 0,0" /></g><g
           transform="translate(1321.6338,1294.4697)"
           id="g60"><path
             id="path62"
             style="fill:#42210b;fill-opacity:1;fill-rule:nonzero;stroke:none"
             d="m 0,0 c -1.687,-58.59 -50.563,-104.733 -109.152,-103.041 -58.603,1.678 -104.74,50.555 -103.047,109.145 1.682,58.604 50.553,104.737 109.15,103.047 C -44.451,107.473 1.683,58.59 0,0" /></g><g
           transform="translate(938.1006,1016.0566)"
           id="g64"><path
             id="path66"
             style="fill:#fffdfd;fill-opacity:1;fill-rule:nonzero;stroke:none"
             d="m 0,0 c -1.455,-50.745 -43.779,-90.699 -94.536,-89.231 -50.748,1.451 -90.706,43.78 -89.245,94.525 1.465,50.758 43.787,90.712 94.535,89.257 C -38.49,93.082 1.47,50.759 0,0" /></g><g
           transform="translate(1196.8418,1009.4336)"
           id="g68"><path
             id="path70"
             style="fill:#fffdfd;fill-opacity:1;fill-rule:nonzero;stroke:none"
             d="m 0,0 c -1.466,-50.753 -43.788,-90.712 -94.538,-89.243 -50.753,1.456 -90.713,43.778 -89.249,94.53 1.462,50.758 43.784,90.711 94.544,89.249 C -38.5,93.08 1.455,50.75 0,0" /></g><g
           transform="translate(1065.6162,1013.209)"
           id="g72"><path
             id="path74"
             style="fill:#000000;fill-opacity:1;fill-rule:nonzero;stroke:none"
             d="m 0,0 c -0.299,-10.329 -8.916,-18.466 -19.249,-18.168 -10.341,0.292 -18.477,8.916 -18.173,19.249 0.298,10.334 8.915,18.47 19.249,18.173 C -7.838,18.95 0.292,10.344 0,0" /></g><g
           transform="translate(808.5337,1019.793)"
           id="g76"><path
             id="path78"
             style="fill:#000000;fill-opacity:1;fill-rule:nonzero;stroke:none"
             d="m 0,0 c -0.292,-10.334 -8.915,-18.471 -19.25,-18.179 -10.334,0.304 -18.468,8.929 -18.17,19.261 0.302,10.334 8.916,18.465 19.249,18.168 C -7.838,18.951 0.3,10.34 0,0" /></g><g
           transform="translate(1060.3369,826.8564)"
           id="g80"><path
             id="path82"
             style="fill:#000000;fill-opacity:1;fill-rule:nonzero;stroke:none"
             d="m 0,0 c -1.369,-28.659 -16.362,-54.677 -39.471,-70.451 -10.656,-7.224 -23.117,-12.302 -36.698,-14.449 -38.163,-5.997 -74.521,12.867 -92.518,44.615 -5.235,9.169 -8.903,19.452 -10.675,30.496 -2.558,16.127 -0.558,31.845 4.85,46.096 z" /></g><g
           transform="translate(1020.8662,756.4053)"
           id="g84"><path
             id="path86"
             style="fill:#ff6498;fill-opacity:1;fill-rule:nonzero;stroke:none"
             d="M 0,0 C -10.656,-7.224 -23.117,-12.302 -36.698,-14.449 -74.861,-20.446 -111.22,-1.582 -129.217,30.166 -114.514,44.535 -94.19,53.191 -72,52.543 -38.479,51.588 -10.464,29.825 0,0" /></g><g
           transform="translate(978.3564,938.0322)"
           id="g88"><path
             id="path90"
             style="fill:#42210b;fill-opacity:1;fill-rule:nonzero;stroke:none"
             d="m 0,0 c -9.246,-11.473 -15.774,-25.384 -18.256,-40.974 -7.606,-47.635 24.853,-92.446 72.5,-100.058 41.684,-6.65 81.177,17.338 95.513,55.336 z" /></g><g
           transform="translate(819.4937,872.3516)"
           id="g92"><path
             id="path94"
             style="fill:#42210b;fill-opacity:1;fill-rule:nonzero;stroke:none"
             d="m 0,0 c 3.368,-14.336 10.35,-28.032 21.12,-39.576 32.922,-35.263 88.219,-37.162 123.488,-4.241 30.862,28.817 36.181,74.712 15,109.361 z" /></g><g
           transform="translate(1301.8525,749.0615)"
           id="g96"><path
             id="path98"
             style="fill:#ed1c24;fill-opacity:1;fill-rule:nonzero;stroke:none"
             d="m 0,0 -3.118,-108.26 c -1.114,-38.738 -8.718,-75.8 -21.704,-110.145 l -677.764,19.516 c -10.923,35.039 -16.388,72.475 -15.277,111.201 l 3.12,108.267 354.462,-111.337 z" /></g><g
           transform="translate(951.335,615.917)"
           id="g100"><path
             id="path102"
             style="fill:#000000;fill-opacity:1;fill-rule:nonzero;stroke:none"
             d="m 0,0 c -0.133,-4.687 -4.026,-8.358 -8.713,-8.232 -4.679,0.134 -8.359,4.035 -8.224,8.72 0.133,4.679 4.034,8.366 8.72,8.232 C -3.545,8.58 0.14,4.68 0,0" /></g><g
           transform="translate(949.8848,565.3877)"
           id="g104"><path
             id="path106"
             style="fill:#000000;fill-opacity:1;fill-rule:nonzero;stroke:none"
             d="m 0,0 c -0.133,-4.678 -4.032,-8.353 -8.717,-8.218 -4.675,0.126 -8.361,4.027 -8.226,8.705 0.132,4.687 4.033,8.371 8.719,8.239 C -3.552,8.593 0.133,4.685 0,0" /></g><g
           transform="translate(1277.0303,530.6563)"
           id="g108"><path
             id="path110"
             style="fill:#4d4d4d;fill-opacity:1;fill-rule:nonzero;stroke:none"
             d="m 0,0 c -6.865,-18.143 -15.187,-35.559 -24.897,-52.067 l -631.009,18.16 c -8.751,17.039 -16.05,34.915 -21.858,53.424 z" /></g><g
           transform="translate(979.8936,512.8008)"
           id="g112"><path
             id="path114"
             style="fill:#1a1a1a;fill-opacity:1;fill-rule:nonzero;stroke:none"
             d="m 0,0 c -0.418,-14.564 -12.575,-26.044 -27.151,-25.627 l -32.825,0.95 c -14.578,0.412 -26.05,12.57 -25.631,27.154 0.415,14.563 12.574,26.036 27.142,25.612 l 32.839,-0.938 C -11.056,26.729 0.419,14.577 0,0" /></g><g
           transform="translate(1098.9355,504.6826)"
           id="g116"><path
             id="path118"
             style="fill:#ffd9ab;fill-opacity:1;fill-rule:nonzero;stroke:none"
             d="m 0,0 c -22.656,-19.059 -25.569,-52.871 -6.51,-75.521 19.065,-22.664 52.872,-25.57 75.535,-6.511 l 63.617,53.526 -69.651,81.505 z" /></g><g
           transform="translate(1310.0947,682.3652)"
           id="g120"><path
             id="path122"
             style="fill:#e50e28;fill-opacity:1;fill-rule:nonzero;stroke:none"
             d="m 0,0 -91.762,-77.225 69.651,-81.494 91.142,76.689 c 22.65,19.046 25.564,52.873 6.504,75.521 C 56.471,16.147 22.657,19.053 0,0" /></g><g
           transform="translate(1161.9268,557.6816)"
           id="g124"><path
             id="path126"
             style="fill:#f41122;fill-opacity:1;fill-rule:nonzero;stroke:none"
             d="m 0,0 82.991,-97.271 46.558,59.024 -73.143,85.706 z" /></g><g
           transform="translate(752.4746,674.1777)"
           id="g128"><path
             id="path130"
             style="fill:#870b14;fill-opacity:1;fill-rule:nonzero;stroke:none"
             d="M 0,0 C 97.418,-30.361 181.936,-37.162 188.78,-15.215 L -164.011,94.677 C -170.841,72.717 -97.416,30.331 0,0" /></g><g
           transform="translate(1132.4814,663.2305)"
           id="g132"><path
             id="path134"
             style="fill:#870b14;fill-opacity:1;fill-rule:nonzero;stroke:none"
             d="M 0,0 C -99.006,-24.702 -183.768,-26.632 -189.339,-4.319 L 169.19,85.096 C 174.744,62.788 99.009,24.682 0,0" /></g><g
           transform="translate(733.7256,173.5049)"
           id="g136"><path
             id="path138"
             style="fill:#333333;fill-opacity:1;fill-rule:nonzero;stroke:none"
             d="M 0,0 C -68.777,0 -124.534,-41.088 -124.534,-91.757 H 124.539 C 124.539,-41.088 68.78,0 0,0" /></g><g
           transform="translate(1249.0732,171.4609)"
           id="g140"><path
             id="path142"
             style="fill:#1a1a1a;fill-opacity:1;fill-rule:nonzero;stroke:none"
             d="M 0,0 C -68.771,0 -124.532,-41.082 -124.532,-91.745 H 124.546 C 124.546,-41.082 68.785,0 0,0" /></g><g
           transform="translate(1016.1963,912.7129)"
           id="g144"><path
             id="path146"
             style="fill:#ffd9ab;fill-opacity:1;fill-rule:nonzero;stroke:none"
             d="m 0,0 c -0.56,-22.206 -19.018,-39.767 -41.224,-39.209 -22.205,0.558 -39.758,19.023 -39.202,41.227 l 1.217,48.625 c 0.558,22.207 19.017,39.764 41.227,39.207 22.208,-0.557 39.76,-19.02 39.201,-41.227 z" /></g><g
           transform="translate(852.1641,1148.4092)"
           id="g148"><path
             id="path150"
             style="fill:#42210b;fill-opacity:1;fill-rule:nonzero;stroke:none"
             d="m 0,0 c 1.661,-6.155 -1.979,-12.5 -8.138,-14.166 l -64.944,-17.538 c -6.156,-1.665 -12.499,1.982 -14.162,8.136 -1.66,6.154 1.979,12.5 8.138,14.165 L -14.162,8.136 C -8.005,9.802 -1.663,6.154 0,0" /></g><g
           transform="translate(1184.3545,1141.0381)"
           id="g152"><path
             id="path154"
             style="fill:#42210b;fill-opacity:1;fill-rule:nonzero;stroke:none"
             d="M 0,0 C -2.242,-5.97 -8.904,-8.991 -14.874,-6.743 L -77.833,16.95 c -5.979,2.242 -8.991,8.904 -6.745,14.876 2.248,5.963 8.911,8.99 14.875,6.742 L -6.739,14.875 C -0.773,12.633 2.248,5.964 0,0" /></g></g></g></g></svg>