<?xml version="1.0" encoding="UTF-8" standalone="no"?>
<svg
   xmlns:dc="http://purl.org/dc/elements/1.1/"
   xmlns:cc="http://creativecommons.org/ns#"
   xmlns:rdf="http://www.w3.org/1999/02/22-rdf-syntax-ns#"
   xmlns:svg="http://www.w3.org/2000/svg"
   xmlns="http://www.w3.org/2000/svg"
   viewBox="0 0 2666.6667 2666.6667"
   height="2666.6667"
   width="2666.6667"
   xml:space="preserve"
   id="svg2"
   version="1.1"><metadata
     id="metadata8"><rdf:RDF><cc:Work
         rdf:about=""><dc:format>image/svg+xml</dc:format><dc:type
           rdf:resource="http://purl.org/dc/dcmitype/StillImage" /></cc:Work></rdf:RDF></metadata><defs
     id="defs6"><clipPath
       id="clipPath18"
       clipPathUnits="userSpaceOnUse"><path
         id="path16"
         d="M 0,2000 H 2000 V 0 H 0 Z" /></clipPath></defs><g
     transform="matrix(1.3333333,0,0,-1.3333333,0,2666.6667)"
     id="g10"><g
       id="g12"><g
         clip-path="url(#clipPath18)"
         id="g14"><g
           transform="translate(773.5644,218.5914)"
           id="g20"><path
             id="path22"
             style="fill:#e7e8e9;fill-opacity:1;fill-rule:evenodd;stroke:none"
             d="m 0,0 c 38.061,0 74.114,-1.454 106.35,-4.048 17.733,13.969 91.027,24.44 178.766,24.44 100.995,0 182.868,-13.872 182.868,-30.986 0,-17.113 -81.873,-30.986 -182.868,-30.986 -12.678,0 -25.055,0.219 -37.006,0.635 0.057,-0.368 0.086,-0.74 0.086,-1.111 0,-23.225 -111.121,-42.054 -248.196,-42.054 -137.075,0 -248.196,18.829 -248.196,42.054 C -248.196,-18.829 -137.075,0 0,0" /></g><g
           transform="translate(1333.8353,1204.6271)"
           id="g24"><path
             id="path26"
             style="fill:#3d2d2e;fill-opacity:1;fill-rule:evenodd;stroke:none"
             d="m 0,0 c 11.617,0 21.092,9.474 21.092,21.091 0,11.617 -9.475,21.092 -21.092,21.092 -11.616,0 -21.092,-9.475 -21.092,-21.092 C -21.092,9.474 -11.616,0 0,0" /></g><g
           transform="translate(1572.1146,815.5035)"
           id="g28"><path
             id="path30"
             style="fill:#f79b78;fill-opacity:1;fill-rule:evenodd;stroke:none"
             d="m 0,0 c 14.882,37.834 25.404,77.679 32.08,115.347 4.994,1.156 10.196,1.761 15.543,1.752 C 85.281,117.03 115.755,86.446 115.688,48.787 115.621,11.129 85.036,-19.347 47.378,-19.276 28.95,-19.243 12.248,-11.9 0,0 m -878.613,-340.444 c 1.584,-1.347 3.301,-2.679 5.078,-4.004 -21.995,-67.357 -48.783,-172.217 -29.784,-239.555 0.554,-2.816 1.524,-5.791 2.842,-8.856 l 0.317,-0.864 c 0.189,-0.507 0.382,-1.011 0.577,-1.513 0.326,-0.842 0.662,-1.675 1.007,-2.5 l 0.526,-1.236 c 0.379,-0.88 0.768,-1.75 1.169,-2.61 l 0.489,-1.035 c 0.435,-0.905 0.88,-1.799 1.337,-2.682 l 0.444,-0.849 c 0.503,-0.947 1.019,-1.88 1.55,-2.802 l 0.353,-0.606 c 0.567,-0.965 1.149,-1.918 1.748,-2.854 l 0.302,-0.469 c 0.627,-0.968 1.273,-1.921 1.936,-2.855 l 0.24,-0.338 c 0.694,-0.97 1.409,-1.919 2.142,-2.852 l 0.214,-0.271 c 0.534,-0.673 1.078,-1.334 1.633,-1.987 -0.12,-0.109 -0.244,-0.21 -0.362,-0.322 -10.734,-10.142 -24.944,-25.807 -15.155,-29.767 14.538,-5.881 65.169,-5.475 83.332,4.338 0.615,0.331 0.886,0.883 0.868,1.6 l 0.166,0.029 0.652,0.121 c 1.348,0.25 2.697,0.529 4.05,0.84 l 0.603,0.146 c 1.279,0.302 2.558,0.635 3.84,0.991 l 0.82,0.23 c 1.273,0.367 2.546,0.759 3.821,1.176 l 0.9,0.296 c 1.267,0.426 2.535,0.875 3.804,1.35 l 0.997,0.377 c 1.259,0.482 2.519,0.985 3.778,1.512 l 0.991,0.423 c 1.145,0.489 2.288,0.997 3.433,1.523 l 1.31,0.611 c 1.127,0.53 2.252,1.077 3.377,1.641 l 1.151,0.582 c 1.18,0.602 2.36,1.223 3.539,1.862 l 1.223,0.668 c 1.172,0.646 2.344,1.31 3.515,1.99 l 1.318,0.775 c 1.025,0.606 2.05,1.225 3.073,1.856 l 1.714,1.066 c 0.961,0.605 1.918,1.219 2.876,1.843 63.761,41.562 122.758,126.951 140.839,154.569 26.752,-42.83 62.068,-88.172 99.404,-105.206 0.319,-0.514 0.838,-0.985 1.603,-1.4 17.897,-9.669 67.789,-10.069 82.115,-4.273 7.334,2.965 1.001,12.595 -7.105,21.434 33.726,40.928 30.572,128.268 20.786,199.047 0.924,1.274 1.8,2.573 2.622,3.902 -1.558,76.883 -9.495,163.805 -25.787,244.823 34.784,3.295 64.105,11.589 88.317,23.066 37.52,-54.538 87.965,-93.073 153.15,-93.084 90.791,-0.015 153.16,63.645 192.904,144.209 19.847,-17.355 45.813,-27.894 74.25,-27.944 62.505,-0.114 113.266,50.466 113.377,112.97 0.113,62.502 -50.466,113.265 -112.97,113.376 -6.917,0.014 -13.691,-0.597 -20.268,-1.775 1.827,17.808 2.729,34.625 2.762,49.889 l -194.385,0.349 c 5.144,13.73 -19.315,27.215 -23.221,26.809 -3.163,-0.329 -19.636,-13.827 -27.573,-20.469 -2.913,0.935 -5.975,1.594 -9.176,1.945 -7.205,0.79 -15.11,1.188 -23.607,1.277 2.994,13.762 -1.197,25.392 -12.311,31.23 -13.587,7.138 -18.518,-0.535 -18.518,-0.535 l -6.517,-31.848 c -11.565,-0.717 -23.767,-1.721 -36.452,-2.895 55.672,45.24 69.171,107.571 50.706,197.045 1.747,-2.522 2.962,-5.196 3.463,-8.071 l 14.625,4.585 c 0,0 -14.929,23.096 1.316,62.93 16.244,39.835 58.74,54.262 58.74,54.262 -109.418,21.087 -145.469,160.026 -79.455,227.176 -211.994,-78.371 -355.897,54.64 -370.419,265.225 -90.797,-244.666 -265.89,-341.47 -508.733,-218.057 160.276,-89.53 106.489,-317.522 -30.428,-350.673 0,0 39.318,23.188 71.578,-83.675 32.262,-106.864 -18.146,-145.173 -18.146,-145.173 0,0 77.628,53.431 153.238,-8.066 75.612,-61.496 70.571,-82.668 70.571,-82.668 0,0 0.722,36.302 17.138,55.448 12.413,14.479 23.942,11.353 28.826,8.969 28.912,-20.775 64.045,-35.596 102.405,-45.423 -43.611,-16.265 -64.231,-58.942 -20.191,-116.022 -61.681,-127.124 -102.12,-306.008 -113.227,-374.297" /></g><g
           transform="translate(1572.1146,815.5035)"
           id="g32"><path
             id="path34"
             style="fill:none;stroke:#3d2d2e;stroke-width:11.33899975;stroke-linecap:round;stroke-linejoin:round;stroke-miterlimit:22.9260006;stroke-dasharray:none;stroke-opacity:1"
             d="m 0,0 c 14.882,37.834 25.404,77.679 32.08,115.347 4.994,1.156 10.196,1.761 15.543,1.752 C 85.281,117.03 115.755,86.446 115.688,48.787 115.621,11.129 85.036,-19.347 47.378,-19.276 28.95,-19.243 12.248,-11.9 0,0 Z m -878.613,-340.444 c 1.584,-1.347 3.301,-2.679 5.078,-4.004 -21.995,-67.357 -48.783,-172.217 -29.784,-239.555 0.554,-2.816 1.524,-5.791 2.842,-8.856 l 0.317,-0.864 c 0.189,-0.507 0.382,-1.011 0.577,-1.513 0.326,-0.842 0.662,-1.675 1.007,-2.5 l 0.526,-1.236 c 0.379,-0.88 0.768,-1.75 1.169,-2.61 l 0.489,-1.035 c 0.435,-0.905 0.88,-1.799 1.337,-2.682 l 0.444,-0.849 c 0.503,-0.947 1.019,-1.88 1.55,-2.802 l 0.353,-0.606 c 0.567,-0.965 1.149,-1.918 1.748,-2.854 l 0.302,-0.469 c 0.627,-0.968 1.273,-1.921 1.936,-2.855 l 0.24,-0.338 c 0.694,-0.97 1.409,-1.919 2.142,-2.852 l 0.214,-0.271 c 0.534,-0.673 1.078,-1.334 1.633,-1.987 -0.12,-0.109 -0.244,-0.21 -0.362,-0.322 -10.734,-10.142 -24.944,-25.807 -15.155,-29.767 14.538,-5.881 65.169,-5.475 83.332,4.338 0.615,0.331 0.886,0.883 0.868,1.6 l 0.166,0.029 0.652,0.121 c 1.348,0.25 2.697,0.529 4.05,0.84 l 0.603,0.146 c 1.279,0.302 2.558,0.635 3.84,0.991 l 0.82,0.23 c 1.273,0.367 2.546,0.759 3.821,1.176 l 0.9,0.296 c 1.267,0.426 2.535,0.875 3.804,1.35 l 0.997,0.377 c 1.259,0.482 2.519,0.985 3.778,1.512 l 0.991,0.423 c 1.145,0.489 2.288,0.997 3.433,1.523 l 1.31,0.611 c 1.127,0.53 2.252,1.077 3.377,1.641 l 1.151,0.582 c 1.18,0.602 2.36,1.223 3.539,1.862 l 1.223,0.668 c 1.172,0.646 2.344,1.31 3.515,1.99 l 1.318,0.775 c 1.025,0.606 2.05,1.225 3.073,1.856 l 1.714,1.066 c 0.961,0.605 1.918,1.219 2.876,1.843 63.761,41.562 122.758,126.951 140.839,154.569 26.752,-42.83 62.068,-88.172 99.404,-105.206 0.319,-0.514 0.838,-0.985 1.603,-1.4 17.897,-9.669 67.789,-10.069 82.115,-4.273 7.334,2.965 1.001,12.595 -7.105,21.434 33.726,40.928 30.572,128.268 20.786,199.047 0.924,1.274 1.8,2.573 2.622,3.902 -1.558,76.883 -9.495,163.805 -25.787,244.823 34.784,3.295 64.105,11.589 88.317,23.066 37.52,-54.538 87.965,-93.073 153.15,-93.084 90.791,-0.015 153.16,63.645 192.904,144.209 19.847,-17.355 45.813,-27.894 74.25,-27.944 62.505,-0.114 113.266,50.466 113.377,112.97 0.113,62.502 -50.466,113.265 -112.97,113.376 -6.917,0.014 -13.691,-0.597 -20.268,-1.775 1.827,17.808 2.729,34.625 2.762,49.889 l -194.385,0.349 c 5.144,13.73 -19.315,27.215 -23.221,26.809 -3.163,-0.329 -19.636,-13.827 -27.573,-20.469 -2.913,0.935 -5.975,1.594 -9.176,1.945 -7.205,0.79 -15.11,1.188 -23.607,1.277 2.994,13.762 -1.197,25.392 -12.311,31.23 -13.587,7.138 -18.518,-0.535 -18.518,-0.535 l -6.517,-31.848 c -11.565,-0.717 -23.767,-1.721 -36.452,-2.895 55.672,45.24 69.171,107.571 50.706,197.045 1.747,-2.522 2.962,-5.196 3.463,-8.071 l 14.625,4.585 c 0,0 -14.929,23.096 1.316,62.93 16.244,39.835 58.74,54.262 58.74,54.262 -109.418,21.087 -145.469,160.026 -79.455,227.176 -211.994,-78.371 -355.897,54.64 -370.419,265.225 -90.797,-244.666 -265.89,-341.47 -508.733,-218.057 160.276,-89.53 106.489,-317.522 -30.428,-350.673 0,0 39.318,23.188 71.578,-83.675 32.262,-106.864 -18.146,-145.173 -18.146,-145.173 0,0 77.628,53.431 153.238,-8.066 75.612,-61.496 70.571,-82.668 70.571,-82.668 0,0 0.722,36.302 17.138,55.448 12.413,14.479 23.942,11.353 28.826,8.969 28.912,-20.775 64.045,-35.596 102.405,-45.423 -43.611,-16.265 -64.231,-58.942 -20.191,-116.022 -61.681,-127.124 -102.12,-306.008 -113.227,-374.297 z" /></g><g
           transform="translate(1105.0072,273.4429)"
           id="g36"><path
             id="path38"
             style="fill:#3d2d2e;fill-opacity:1;fill-rule:evenodd;stroke:none"
             d="m 0,0 c 0,0 39.429,-32.232 24.85,-38.131 -14.326,-5.793 -64.217,-5.394 -82.114,4.276 C -71.164,-26.344 -7.674,-1.297 0,0" /></g><g
           transform="translate(1122.7572,561.7789)"
           id="g40"><path
             id="path42"
             style="fill:#8d3532;fill-opacity:1;fill-rule:evenodd;stroke:none"
             d="m 0,0 c 0,0 -35.722,32.986 -110.64,5.74 -74.918,-27.248 -113.858,-130.197 -113.858,-130.197 0,0 104.605,-241.738 201.918,-198.072 C 74.731,-278.861 0,0 0,0" /></g><g
           transform="translate(1122.7572,561.7789)"
           id="g44"><path
             id="path46"
             style="fill:none;stroke:#3d2d2e;stroke-width:2.83500004;stroke-linecap:round;stroke-linejoin:round;stroke-miterlimit:22.9260006;stroke-dasharray:none;stroke-opacity:1"
             d="m 0,0 c 0,0 -35.722,32.986 -110.64,5.74 -74.918,-27.248 -113.858,-130.197 -113.858,-130.197 0,0 104.605,-241.738 201.918,-198.072 C 74.731,-278.861 0,0 0,0 Z" /></g><g
           transform="translate(1015.8276,260.9224)"
           id="g48"><path
             id="path50"
             style="fill:#fce482;fill-opacity:1;fill-rule:evenodd;stroke:none"
             d="m 0,0 c 26.88,-22.815 55.925,-34.428 84.351,-21.673 25.134,11.278 38.787,38.255 45.216,72.059 C 115.557,56.349 66.199,-36.02 0,0" /></g><g
           transform="translate(1015.8276,260.9224)"
           id="g52"><path
             id="path54"
             style="fill:none;stroke:#3d2d2e;stroke-width:2.83500004;stroke-linecap:round;stroke-linejoin:round;stroke-miterlimit:22.9260006;stroke-dasharray:none;stroke-opacity:1"
             d="m 0,0 c 26.88,-22.815 55.925,-34.428 84.351,-21.673 25.134,11.278 38.787,38.255 45.216,72.059 C 115.557,56.349 66.199,-36.02 0,0 Z" /></g><g
           transform="translate(751.1738,689.9234)"
           id="g56"><path
             id="path58"
             style="fill:#ffffff;fill-opacity:1;fill-rule:evenodd;stroke:none"
             d="M 0,0 C -89.76,-213.669 29.417,-323.45 136.167,-336.172 453.394,-373.979 408.635,112.011 265.171,259.366 104.708,424.181 40.451,96.287 0,0" /></g><g
           transform="translate(751.1738,689.9234)"
           id="g60"><path
             id="path62"
             style="fill:none;stroke:#373535;stroke-width:0.56699997;stroke-linecap:butt;stroke-linejoin:miter;stroke-miterlimit:22.9260006;stroke-dasharray:none;stroke-opacity:1"
             d="M 0,0 C -89.76,-213.669 29.417,-323.45 136.167,-336.172 453.394,-373.979 408.635,112.011 265.171,259.366 104.708,424.181 40.451,96.287 0,0 Z" /></g><g
           transform="translate(720.788,535.3297)"
           id="g64"><path
             id="path66"
             style="fill:#a83336;fill-opacity:1;fill-rule:evenodd;stroke:none"
             d="m 0,0 c 0,0 44.065,28.71 123.313,-15.918 33.87,-19.075 58.568,-51.867 75.752,-83.171 70.969,-6.474 127.712,2.889 171.162,17.193 -27.599,-53.293 -72.704,-91.17 -139.53,-99.863 C 218.067,-201.815 78.093,-419.09 -19.043,-355.192 -120.847,-288.228 0,0 0,0" /></g><g
           transform="translate(720.788,535.3297)"
           id="g68"><path
             id="path70"
             style="fill:none;stroke:#3d2d2e;stroke-width:2.83500004;stroke-linecap:round;stroke-linejoin:round;stroke-miterlimit:22.9260006;stroke-dasharray:none;stroke-opacity:1"
             d="m 0,0 c 0,0 44.065,28.71 123.313,-15.918 33.87,-19.075 58.568,-51.867 75.752,-83.171 70.969,-6.474 127.712,2.889 171.162,17.193 -27.599,-53.293 -72.704,-91.17 -139.53,-99.863 C 218.067,-201.815 78.093,-419.09 -19.043,-355.192 -120.847,-288.228 0,0 0,0 Z" /></g><g
           transform="translate(807.0161,192.357)"
           id="g72"><path
             id="path74"
             style="fill:#fce482;fill-opacity:1;fill-rule:evenodd;stroke:none"
             d="m 0,0 c -35.643,-23.542 -72.844,-33.55 -105.271,-12.22 -14.905,9.805 -25.035,24.356 -31.466,42.052 -9.483,22.059 -1.014,39.397 51.58,26.895 C -36.455,46.382 7.286,7.962 0,0" /></g><g
           transform="translate(807.0161,192.357)"
           id="g76"><path
             id="path78"
             style="fill:none;stroke:#3d2d2e;stroke-width:2.83500004;stroke-linecap:round;stroke-linejoin:round;stroke-miterlimit:22.9260006;stroke-dasharray:none;stroke-opacity:1"
             d="m 0,0 c -35.643,-23.542 -72.844,-33.55 -105.271,-12.22 -14.905,9.805 -25.035,24.356 -31.466,42.052 -9.483,22.059 -1.014,39.397 51.58,26.895 C -36.455,46.382 7.286,7.962 0,0 Z" /></g><g
           transform="translate(685.8998,193.5455)"
           id="g80"><path
             id="path82"
             style="fill:#3d2d2e;fill-opacity:1;fill-rule:evenodd;stroke:none"
             d="m 0,0 c -10.733,-10.144 -24.944,-25.808 -15.154,-29.768 14.537,-5.879 65.169,-5.474 83.331,4.338 C 76.473,-20.946 23.788,22.479 0,0" /></g><g
           transform="translate(999.8027,882.774)"
           id="g84"><path
             id="path86"
             style="fill:#fcc9ae;fill-opacity:1;fill-rule:evenodd;stroke:none"
             d="m 0,0 c 56.83,-36.77 157.319,-82.65 263.885,-52.902 49.093,13.704 83.395,36.297 105.623,61.564 7.119,-2.331 16.272,-4.2 20.294,-1.914 6.749,3.834 14.297,15.191 9.166,22.243 -1.949,2.681 -6.209,4.78 -10.742,6.354 0.856,1.584 1.668,3.17 2.445,4.756 9.069,0.5 19.8,2.36 23.327,6.607 6.142,7.395 9.919,23.854 0.889,29.779 -2.945,1.933 -7.677,2.626 -12.715,2.683 0.102,0.979 0.186,1.955 0.258,2.926 9.676,2.135 20.745,5.745 23.125,10.013 4.167,7.474 5.21,28.263 -4.914,32.025 -5.318,1.975 -15.606,-0.422 -24.179,-3.143 l -0.213,0.475 c 6.467,4.421 14.372,10.754 19.777,18.235 10.636,14.722 -17.339,30.346 -21.538,29.91 -3.163,-0.328 -19.637,-13.827 -27.574,-20.469 -2.913,0.936 -5.974,1.595 -9.176,1.945 -7.205,0.791 -15.112,1.188 -23.609,1.278 2.995,13.761 -1.195,25.391 -12.309,31.229 -13.588,7.138 -18.519,-0.535 -18.519,-0.535 l -6.516,-31.848 C 224.795,146.746 128.174,131.165 43.214,132.999 -38.401,134.761 -99.932,64.657 0,0" /></g><g
           transform="translate(999.8027,882.774)"
           id="g88"><path
             id="path90"
             style="fill:none;stroke:#3d2d2e;stroke-width:2.83500004;stroke-linecap:round;stroke-linejoin:round;stroke-miterlimit:22.9260006;stroke-dasharray:none;stroke-opacity:1"
             d="m 0,0 c 56.83,-36.77 157.319,-82.65 263.885,-52.902 49.093,13.704 83.395,36.297 105.623,61.564 7.119,-2.331 16.272,-4.2 20.294,-1.914 6.749,3.834 14.297,15.191 9.166,22.243 -1.949,2.681 -6.209,4.78 -10.742,6.354 0.856,1.584 1.668,3.17 2.445,4.756 9.069,0.5 19.8,2.36 23.327,6.607 6.142,7.395 9.919,23.854 0.889,29.779 -2.945,1.933 -7.677,2.626 -12.715,2.683 0.102,0.979 0.186,1.955 0.258,2.926 9.676,2.135 20.745,5.745 23.125,10.013 4.167,7.474 5.21,28.263 -4.914,32.025 -5.318,1.975 -15.606,-0.422 -24.179,-3.143 l -0.213,0.475 c 6.467,4.421 14.372,10.754 19.777,18.235 10.636,14.722 -17.339,30.346 -21.538,29.91 -3.163,-0.328 -19.637,-13.827 -27.574,-20.469 -2.913,0.936 -5.974,1.595 -9.176,1.945 -7.205,0.791 -15.112,1.188 -23.609,1.278 2.995,13.761 -1.195,25.391 -12.309,31.229 -13.588,7.138 -18.519,-0.535 -18.519,-0.535 l -6.516,-31.848 C 224.795,146.746 128.174,131.165 43.214,132.999 -38.401,134.761 -99.932,64.657 0,0 Z" /></g><g
           transform="translate(999.8027,882.774)"
           id="g92"><path
             id="path94"
             style="fill:#f79b78;fill-opacity:1;fill-rule:evenodd;stroke:none"
             d="M 0,0 C 29.106,-18.832 69.666,-40.05 116.627,-52.277 V 134.936 C 91.772,133.341 67.035,132.485 43.214,133 -38.402,134.762 -99.931,64.657 0,0" /></g><g
           transform="translate(999.8027,882.774)"
           id="g96"><path
             id="path98"
             style="fill:none;stroke:#3d2d2e;stroke-width:2.83500004;stroke-linecap:round;stroke-linejoin:round;stroke-miterlimit:22.9260006;stroke-dasharray:none;stroke-opacity:1"
             d="M 0,0 C 29.106,-18.832 69.666,-40.05 116.627,-52.277 V 134.936 C 91.772,133.341 67.035,132.485 43.214,133 -38.402,134.762 -99.931,64.657 0,0 Z" /></g><g
           transform="translate(692.142,474.605)"
           id="g100"><path
             id="path102"
             style="fill:#f79b78;fill-opacity:1;fill-rule:evenodd;stroke:none"
             d="M 0,0 C 77.962,-66.279 396.1,-108.602 454.018,-14.907 450.513,157.961 414.813,381.616 324.202,474.684 147.442,656.239 21.049,129.432 0,0" /></g><g
           transform="translate(692.142,474.605)"
           id="g104"><path
             id="path106"
             style="fill:none;stroke:#3d2d2e;stroke-width:2.83500004;stroke-linecap:round;stroke-linejoin:round;stroke-miterlimit:22.9260006;stroke-dasharray:none;stroke-opacity:1"
             d="M 0,0 C 77.962,-66.279 396.1,-108.602 454.018,-14.907 450.513,157.961 414.813,381.616 324.202,474.684 147.442,656.239 21.049,129.432 0,0 Z" /></g><g
           transform="translate(1285.9857,1317.1456)"
           id="g108"><path
             id="path110"
             style="fill:#fcc9ae;fill-opacity:1;fill-rule:evenodd;stroke:none"
             d="m 0,0 8.104,-25.769 c 52.133,-165.754 25.732,-253.876 -123.189,-307.57 -160.575,-57.898 -461.358,-57.993 -517.571,120.735 l -8.104,25.769 C -754.968,176.29 -113.246,360.07 0,0" /></g><g
           transform="translate(1285.9857,1317.1456)"
           id="g112"><path
             id="path114"
             style="fill:none;stroke:#3d2d2e;stroke-width:4.25199986;stroke-linecap:round;stroke-linejoin:round;stroke-miterlimit:22.9260006;stroke-dasharray:none;stroke-opacity:1"
             d="m 0,0 8.104,-25.769 c 52.133,-165.754 25.732,-253.876 -123.189,-307.57 -160.575,-57.898 -461.358,-57.993 -517.571,120.735 l -8.104,25.769 C -754.968,176.29 -113.246,360.07 0,0 Z" /></g><g
           transform="translate(1286.5131,1261.7565)"
           id="g116"><path
             id="path118"
             style="fill:#89624d;fill-opacity:1;fill-rule:evenodd;stroke:none"
             d="m 0,0 c 13.403,10.276 42.797,-136.788 -35.496,-186.237 -1.965,-0.617 -4.028,-0.791 -6.164,-0.562 l 0.003,-0.007 c 0,0 -95.788,9.006 -194.132,-2.327 -85.274,-9.825 -83.673,-14.555 -153.169,-36.412 -63.036,-19.826 -133.053,24.251 -156.389,98.448 -23.337,74.199 13.778,201.535 77.816,217.839 C -435.234,48.472 -226.386,-137.307 0,0" /></g><g
           transform="translate(1286.5131,1261.7565)"
           id="g120"><path
             id="path122"
             style="fill:none;stroke:#3d2d2e;stroke-width:2.83500004;stroke-linecap:round;stroke-linejoin:round;stroke-miterlimit:22.9260006;stroke-dasharray:none;stroke-opacity:1"
             d="m 0,0 c 13.403,10.276 42.797,-136.788 -35.496,-186.237 -1.965,-0.617 -4.028,-0.791 -6.164,-0.562 l 0.003,-0.007 c 0,0 -95.788,9.006 -194.132,-2.327 -85.274,-9.825 -83.673,-14.555 -153.169,-36.412 -63.036,-19.826 -133.053,24.251 -156.389,98.448 -23.337,74.199 13.778,201.535 77.816,217.839 C -435.234,48.472 -226.386,-137.307 0,0 Z" /></g><g
           transform="translate(859.9409,1150.6163)"
           id="g124"><path
             id="path126"
             style="fill:#f8aeb0;fill-opacity:1;fill-rule:evenodd;stroke:none"
             d="m 0,0 c 52.733,-13.79 90.336,-44.658 83.983,-68.948 -6.351,-24.29 -54.249,-32.803 -106.984,-19.013 -52.734,13.789 -90.337,44.658 -83.983,68.948 C -100.634,5.276 -52.735,13.79 0,0" /></g><g
           transform="translate(859.9409,1150.6163)"
           id="g128"><path
             id="path130"
             style="fill:none;stroke:#3d2d2e;stroke-width:1.41700006;stroke-linecap:round;stroke-linejoin:round;stroke-miterlimit:22.9260006;stroke-dasharray:none;stroke-opacity:1"
             d="m 0,0 c 52.733,-13.79 90.336,-44.658 83.983,-68.948 -6.351,-24.29 -54.249,-32.803 -106.984,-19.013 -52.734,13.789 -90.337,44.658 -83.983,68.948 C -100.634,5.276 -52.735,13.79 0,0 Z" /></g><g
           transform="translate(1131.1019,1078.0133)"
           id="g132"><path
             id="path134"
             style="fill:#ffffff;fill-opacity:1;fill-rule:evenodd;stroke:none"
             d="m 0,0 c -25.204,-0.62 -52.689,-2.199 -80.378,-5.39 -85.274,-9.825 -83.673,-14.555 -153.169,-36.412 -18.421,-5.795 -37.436,-6.123 -55.709,-1.845 32.543,23.067 80.998,42.042 136.709,51.076 C -93.504,17.005 -38.66,13.416 0,0" /></g><g
           transform="translate(1131.1019,1078.0133)"
           id="g136"><path
             id="path138"
             style="fill:none;stroke:#3d2d2e;stroke-width:1.41700006;stroke-linecap:round;stroke-linejoin:round;stroke-miterlimit:22.9260006;stroke-dasharray:none;stroke-opacity:1"
             d="m 0,0 c -25.204,-0.62 -52.689,-2.199 -80.378,-5.39 -85.274,-9.825 -83.673,-14.555 -153.169,-36.412 -18.421,-5.795 -37.436,-6.123 -55.709,-1.845 32.543,23.067 80.998,42.042 136.709,51.076 C -93.504,17.005 -38.66,13.416 0,0 Z" /></g><g
           transform="translate(816.4955,1349.1461)"
           id="g140"><path
             id="path142"
             style="fill:#ffffff;fill-opacity:1;fill-rule:evenodd;stroke:none"
             d="M 0,0 C 0.567,0.164 1.131,0.337 1.704,0.483 32.997,-40.472 230.027,-216.146 448.166,-102.147 427.693,-178.728 325.537,-226.176 208.614,-209.861 82.849,-192.311 -12.361,-107.636 -4.04,-20.737 -3.358,-13.609 -1.987,-6.691 0,0" /></g><g
           transform="translate(816.4955,1349.1461)"
           id="g144"><path
             id="path146"
             style="fill:none;stroke:#3d2d2e;stroke-width:1.41700006;stroke-linecap:round;stroke-linejoin:round;stroke-miterlimit:22.9260006;stroke-dasharray:none;stroke-opacity:1"
             d="M 0,0 C 0.567,0.164 1.131,0.337 1.704,0.483 32.997,-40.472 230.027,-216.146 448.166,-102.147 427.693,-178.728 325.537,-226.176 208.614,-209.861 82.849,-192.311 -12.361,-107.636 -4.04,-20.737 -3.358,-13.609 -1.987,-6.691 0,0 Z" /></g><g
           transform="translate(892.83,1379.1559)"
           id="g148"><path
             id="path150"
             style="fill:#ffffff;fill-opacity:1;fill-rule:evenodd;stroke:none"
             d="m 0,0 179.833,-40.848 c 0,0 0.019,68.318 -67.121,92.744 C 45.574,76.32 0,0 0,0" /></g><g
           transform="translate(892.83,1379.1559)"
           id="g152"><path
             id="path154"
             style="fill:none;stroke:#3d2d2e;stroke-width:2.12599993;stroke-linecap:round;stroke-linejoin:round;stroke-miterlimit:22.9260006;stroke-dasharray:none;stroke-opacity:1"
             d="m 0,0 179.833,-40.848 c 0,0 0.019,68.318 -67.121,92.744 C 45.574,76.32 0,0 0,0 Z" /></g><g
           transform="translate(1011.2973,1375.757)"
           id="g156"><path
             id="path158"
             style="fill:#3d2d2e;fill-opacity:1;fill-rule:evenodd;stroke:none"
             d="m 0,0 c 4.273,1.344 8.974,-1.493 10.497,-6.336 1.524,-4.845 -0.706,-9.861 -4.98,-11.206 -4.274,-1.344 -8.974,1.493 -10.497,6.337 C -6.504,-6.361 -4.273,-1.345 0,0" /></g><g
           transform="translate(1191.1049,1329.2496)"
           id="g160"><path
             id="path162"
             style="fill:#ffffff;fill-opacity:1;fill-rule:evenodd;stroke:none"
             d="M 0,0 C 0,0 7.527,38.697 29.338,45.813 51.149,52.929 61.237,6.212 61.237,6.212 Z" /></g><g
           transform="translate(1191.1049,1329.2496)"
           id="g164"><path
             id="path166"
             style="fill:none;stroke:#3d2d2e;stroke-width:2.12599993;stroke-linecap:round;stroke-linejoin:round;stroke-miterlimit:22.9260006;stroke-dasharray:none;stroke-opacity:1"
             d="M 0,0 C 0,0 7.527,38.697 29.338,45.813 51.149,52.929 61.237,6.212 61.237,6.212 Z" /></g><g
           transform="translate(1220.6508,1346.5011)"
           id="g168"><path
             id="path170"
             style="fill:#3d2d2e;fill-opacity:1;fill-rule:evenodd;stroke:none"
             d="M 0,0 C 2.516,0.791 5.281,-0.878 6.178,-3.729 7.074,-6.579 5.762,-9.531 3.247,-10.322 0.731,-11.113 -2.034,-9.444 -2.931,-6.593 -3.827,-3.743 -2.515,-0.791 0,0" /></g><g
           transform="translate(1008.8276,1498.1066)"
           id="g172"><path
             id="path174"
             style="fill:#3d2d2e;fill-opacity:1;fill-rule:evenodd;stroke:none"
             d="M 0,0 C 30.753,-6.524 25.858,-27.104 16.231,-33.542 6.605,-39.979 -77.431,-51.065 -82.739,-40.515 -96.442,-13.279 -16.958,3.598 0,0" /></g><g
           transform="translate(1228.5531,1389.1139)"
           id="g176"><path
             id="path178"
             style="fill:#3d2d2e;fill-opacity:1;fill-rule:evenodd;stroke:none"
             d="m 0,0 c -14.251,1.102 -38.722,4.731 -42.468,16.644 -5.337,16.969 -2.47,32.932 9.578,28.832 C -22.115,41.809 33.927,-2.627 0,0" /></g><g
           transform="translate(1184.723,1248.9059)"
           id="g180"><path
             id="path182"
             style="fill:none;stroke:#3d2d2e;stroke-width:2.83500004;stroke-linecap:round;stroke-linejoin:round;stroke-miterlimit:22.9260006;stroke-dasharray:none;stroke-opacity:1"
             d="M 0,0 C 6.057,1.104 37.509,4.191 34.893,27.787 32.275,51.382 17.461,67.938 -16.269,51.726 -49.998,35.513 -45.124,23.835 -45.124,23.835" /></g><g
           transform="translate(684.2802,1123.8527)"
           id="g184"><path
             id="path186"
             style="fill:#3d2d2e;fill-opacity:1;fill-rule:evenodd;stroke:none"
             d="m 0,0 c 0,0 -21.537,102.374 23.714,188.761 45.252,86.388 90.503,96.673 90.503,96.673 0,0 15.426,46.28 86.388,78.161 70.963,31.882 191.953,30.116 261.284,-6.932 31.766,-16.974 56.04,-32.954 78.008,-55.139 35.612,-35.966 56.404,-83.825 71.99,-135.149 6.912,-22.767 13.88,-45.735 18.137,-70.165 l 14.625,4.587 c 0,0 -14.929,23.096 1.316,62.93 16.245,39.835 58.741,54.261 58.741,54.261 C 595.286,239.076 559.236,378.014 625.25,445.164 413.255,366.792 269.354,499.805 254.831,710.39 164.034,465.722 -11.059,368.919 -253.902,492.333 c 160.277,-89.531 106.488,-317.521 -30.427,-350.672 0,0 39.317,23.187 71.578,-83.677 32.261,-106.863 -18.146,-145.172 -18.146,-145.172 0,0 77.627,53.43 153.238,-8.066 75.611,-61.498 70.57,-82.668 70.57,-82.668 0,0 0.722,36.301 17.138,55.448 16.415,19.147 31.288,7.506 31.288,7.506 0,0 -25.194,18.339 -40.422,38.123 -15.228,19.784 -21.868,35.735 -21.868,35.735 z" /></g><g
           transform="translate(684.2802,1123.8527)"
           id="g188"><path
             id="path190"
             style="fill:none;stroke:#3d2d2e;stroke-width:2.83500004;stroke-linecap:round;stroke-linejoin:round;stroke-miterlimit:22.9260006;stroke-dasharray:none;stroke-opacity:1"
             d="m 0,0 c 0,0 -21.537,102.374 23.714,188.761 45.252,86.388 90.503,96.673 90.503,96.673 0,0 15.426,46.28 86.388,78.161 70.963,31.882 191.953,30.116 261.284,-6.932 31.766,-16.974 56.04,-32.954 78.008,-55.139 35.612,-35.966 56.404,-83.825 71.99,-135.149 6.912,-22.767 13.88,-45.735 18.137,-70.165 l 14.625,4.587 c 0,0 -14.929,23.096 1.316,62.93 16.245,39.835 58.741,54.261 58.741,54.261 C 595.286,239.076 559.236,378.014 625.25,445.164 413.255,366.792 269.354,499.805 254.831,710.39 164.034,465.722 -11.059,368.919 -253.902,492.333 c 160.277,-89.531 106.488,-317.521 -30.427,-350.672 0,0 39.317,23.187 71.578,-83.677 32.261,-106.863 -18.146,-145.172 -18.146,-145.172 0,0 77.627,53.43 153.238,-8.066 75.611,-61.498 70.57,-82.668 70.57,-82.668 0,0 0.722,36.301 17.138,55.448 16.415,19.147 31.288,7.506 31.288,7.506 0,0 -25.194,18.339 -40.422,38.123 -15.228,19.784 -21.868,35.735 -21.868,35.735 z" /></g><g
           transform="translate(719.6918,1114.7999)"
           id="g192"><path
             id="path194"
             style="fill:#fcc9ae;fill-opacity:1;fill-rule:evenodd;stroke:none"
             d="M 0,0 C 2.032,-85.426 -167.523,-98.867 -170.008,5.57 -172.851,125.041 -2.022,85.01 0,0" /></g><g
           transform="translate(719.6918,1114.7999)"
           id="g196"><path
             id="path198"
             style="fill:none;stroke:#3d2d2e;stroke-width:2.83500004;stroke-linecap:round;stroke-linejoin:round;stroke-miterlimit:22.9260006;stroke-dasharray:none;stroke-opacity:1"
             d="M 0,0 C 2.032,-85.426 -167.523,-98.867 -170.008,5.57 -172.851,125.041 -2.022,85.01 0,0 Z" /></g><g
           transform="translate(670.0873,1071.7599)"
           id="g200"><path
             id="path202"
             style="fill:#cb9375;fill-opacity:1;fill-rule:evenodd;stroke:none"
             d="m 0,0 c -36.081,-14.573 -89.475,-1.729 -90.656,47.956 -1.714,72.039 83.75,63.993 113.26,23.747 C 0.815,74.064 -20.213,63.473 -19.485,32.893 -19.101,16.747 -11.079,5.991 0,0" /></g><g
           transform="translate(670.0873,1071.7599)"
           id="g204"><path
             id="path206"
             style="fill:none;stroke:#3d2d2e;stroke-width:1.41700006;stroke-linecap:round;stroke-linejoin:round;stroke-miterlimit:22.9260006;stroke-dasharray:none;stroke-opacity:1"
             d="m 0,0 c -36.081,-14.573 -89.475,-1.729 -90.656,47.956 -1.714,72.039 83.75,63.993 113.26,23.747 C 0.815,74.064 -20.213,63.473 -19.485,32.893 -19.101,16.747 -11.079,5.991 0,0 Z" /></g><g
           transform="translate(670.0873,1071.7599)"
           id="g208"><path
             id="path210"
             style="fill:#cb9375;fill-opacity:1;fill-rule:evenodd;stroke:none"
             d="m 0,0 c -20.92,-8.449 -47.657,-7.681 -66.665,4.139 -4.39,8.528 -7.023,18.635 -7.302,30.402 -0.976,41.013 20.759,61.154 48.141,66.165 C -6.858,97.047 11.695,86.579 22.604,71.703 0.815,74.064 -20.213,63.473 -19.485,32.893 -19.101,16.747 -11.079,5.991 0,0" /></g><g
           transform="translate(670.0873,1071.7599)"
           id="g212"><path
             id="path214"
             style="fill:none;stroke:#3d2d2e;stroke-width:1.41700006;stroke-linecap:round;stroke-linejoin:round;stroke-miterlimit:22.9260006;stroke-dasharray:none;stroke-opacity:1"
             d="m 0,0 c -20.92,-8.449 -47.657,-7.681 -66.665,4.139 -4.39,8.528 -7.023,18.635 -7.302,30.402 -0.976,41.013 20.759,61.154 48.141,66.165 C -6.858,97.047 11.695,86.579 22.604,71.703 0.815,74.064 -20.213,63.473 -19.485,32.893 -19.101,16.747 -11.079,5.991 0,0 Z" /></g><g
           transform="translate(670.0873,1071.7599)"
           id="g216"><path
             id="path218"
             style="fill:#9a664c;fill-opacity:1;fill-rule:evenodd;stroke:none"
             d="M 0,0 C -9.042,-3.652 -19.172,-5.58 -29.294,-5.639 -39.338,3.27 -46,16.181 -46.412,33.508 -47.34,72.535 -23.126,88.459 4.255,88.654 11.45,84.005 17.775,78.286 22.604,71.703 0.815,74.064 -20.213,63.473 -19.485,32.893 -19.101,16.747 -11.079,5.991 0,0" /></g><g
           transform="translate(670.0873,1071.7599)"
           id="g220"><path
             id="path222"
             style="fill:none;stroke:#3d2d2e;stroke-width:1.41700006;stroke-linecap:round;stroke-linejoin:round;stroke-miterlimit:22.9260006;stroke-dasharray:none;stroke-opacity:1"
             d="M 0,0 C -9.042,-3.652 -19.172,-5.58 -29.294,-5.639 -39.338,3.27 -46,16.181 -46.412,33.508 -47.34,72.535 -23.126,88.459 4.255,88.654 11.45,84.005 17.775,78.286 22.604,71.703 0.815,74.064 -20.213,63.473 -19.485,32.893 -19.101,16.747 -11.079,5.991 0,0 Z" /></g><g
           transform="translate(1360.7826,632.3902)"
           id="g224"><path
             id="path226"
             style="fill:#fffcd6;fill-opacity:1;fill-rule:evenodd;stroke:none"
             d="m 0,0 c -172.257,0.028 -241.633,269.058 -241.415,391.609 l 491.471,-0.884 C 249.779,255.716 181.97,-0.03 0,0" /></g><g
           transform="translate(1360.7826,632.3902)"
           id="g228"><path
             id="path230"
             style="fill:none;stroke:#3d2d2e;stroke-width:4.25199986;stroke-linecap:round;stroke-linejoin:round;stroke-miterlimit:22.9260006;stroke-dasharray:none;stroke-opacity:1"
             d="m 0,0 c -172.257,0.028 -241.633,269.058 -241.415,391.609 l 491.471,-0.884 C 249.779,255.716 181.97,-0.03 0,0 Z" /></g><g
           transform="translate(1631.3715,975.0015)"
           id="g232"><path
             id="path234"
             style="fill:#fcd4c3;fill-opacity:1;fill-rule:evenodd;stroke:none"
             d="m 0,0 c 62.505,-0.111 113.083,-50.873 112.97,-113.377 -0.112,-62.504 -50.871,-113.083 -113.377,-112.97 -29.455,0.052 -56.259,11.357 -76.359,29.834 5.803,11.906 11.12,24.166 15.96,36.641 12.407,-13.186 30.003,-21.434 49.536,-21.468 37.66,-0.071 68.244,30.404 68.312,68.064 0.067,37.658 -30.407,68.242 -68.065,68.31 -6.49,0.012 -12.768,-0.884 -18.717,-2.567 2.769,15.518 4.881,30.662 6.384,45.16 C -15.818,-0.805 -8.006,0.016 0,0" /></g><g
           transform="translate(1631.3715,975.0015)"
           id="g236"><path
             id="path238"
             style="fill:none;stroke:#3d2d2e;stroke-width:2.83500004;stroke-linecap:round;stroke-linejoin:round;stroke-miterlimit:22.9260006;stroke-dasharray:none;stroke-opacity:1"
             d="m 0,0 c 62.505,-0.111 113.083,-50.873 112.97,-113.377 -0.112,-62.504 -50.871,-113.083 -113.377,-112.97 -29.455,0.052 -56.259,11.357 -76.359,29.834 5.803,11.906 11.12,24.166 15.96,36.641 12.407,-13.186 30.003,-21.434 49.536,-21.468 37.66,-0.071 68.244,30.404 68.312,68.064 0.067,37.658 -30.407,68.242 -68.065,68.31 -6.49,0.012 -12.768,-0.884 -18.717,-2.567 2.769,15.518 4.881,30.662 6.384,45.16 C -15.818,-0.805 -8.006,0.016 0,0 Z" /></g><g
           transform="translate(1343.3168,833.3873)"
           id="g240"><path
             id="path242"
             style="fill:#3d2d2e;fill-opacity:1;fill-rule:evenodd;stroke:none"
             d="M 0,0 79.732,81.374 C 63.685,92.264 36.198,85.337 15.674,64.391 -4.849,43.444 -11.214,15.822 0,0 M 70.777,10.399 C 50.254,-10.547 22.769,-17.474 6.721,-6.585 L 86.452,74.789 C 97.666,58.967 91.302,31.346 70.777,10.399" /></g><g
           transform="translate(822.8173,829.0103)"
           id="g244"><path
             id="path246"
             style="fill:#fcc9ae;fill-opacity:1;fill-rule:evenodd;stroke:none"
             d="m 0,0 c 54.642,-55.548 156.054,-132.272 283.241,-125.544 58.59,3.099 102.791,19.891 134.095,42.712 7.415,-4.402 17.231,-8.795 22.324,-7.234 8.543,2.616 19.869,13.487 15.87,22.696 -1.519,3.5 -5.78,6.926 -10.479,9.829 1.36,1.565 2.669,3.143 3.939,4.73 10.314,-1.71 22.838,-2.306 27.865,1.582 8.753,6.768 17.119,24.315 8.459,33.235 -2.825,2.91 -7.967,4.874 -13.614,6.199 0.359,1.077 0.697,2.151 1.022,3.225 11.406,-0.026 24.749,1.257 28.491,5.457 6.554,7.352 12.934,30.45 2.501,37.213 -5.48,3.551 -17.64,3.434 -27.953,2.525 l -0.121,0.586 c 8.374,3.348 18.842,8.483 26.789,15.536 15.638,13.875 -11.88,38.44 -16.708,39 -3.636,0.424 -25.526,-10.616 -36.109,-16.091 -3.037,1.782 -6.313,3.288 -9.823,4.485 -7.897,2.692 -16.678,5.12 -26.203,7.349 6.811,14.711 5.017,28.828 -6.008,38.172 -13.48,11.423 -20.942,4.037 -20.942,4.037 L 371.336,95.55 C 289.334,108.566 176.871,115.264 81.872,138.607 -9.387,161.033 -96.082,97.68 0,0" /></g><g
           transform="translate(822.8173,829.0103)"
           id="g248"><path
             id="path250"
             style="fill:none;stroke:#3d2d2e;stroke-width:2.83500004;stroke-linecap:round;stroke-linejoin:round;stroke-miterlimit:22.9260006;stroke-dasharray:none;stroke-opacity:1"
             d="m 0,0 c 54.642,-55.548 156.054,-132.272 283.241,-125.544 58.59,3.099 102.791,19.891 134.095,42.712 7.415,-4.402 17.231,-8.795 22.324,-7.234 8.543,2.616 19.869,13.487 15.87,22.696 -1.519,3.5 -5.78,6.926 -10.479,9.829 1.36,1.565 2.669,3.143 3.939,4.73 10.314,-1.71 22.838,-2.306 27.865,1.582 8.753,6.768 17.119,24.315 8.459,33.235 -2.825,2.91 -7.967,4.874 -13.614,6.199 0.359,1.077 0.697,2.151 1.022,3.225 11.406,-0.026 24.749,1.257 28.491,5.457 6.554,7.352 12.934,30.45 2.501,37.213 -5.48,3.551 -17.64,3.434 -27.953,2.525 l -0.121,0.586 c 8.374,3.348 18.842,8.483 26.789,15.536 15.638,13.875 -11.88,38.44 -16.708,39 -3.636,0.424 -25.526,-10.616 -36.109,-16.091 -3.037,1.782 -6.313,3.288 -9.823,4.485 -7.897,2.692 -16.678,5.12 -26.203,7.349 6.811,14.711 5.017,28.828 -6.008,38.172 -13.48,11.423 -20.942,4.037 -20.942,4.037 L 371.336,95.55 C 289.334,108.566 176.871,115.264 81.872,138.607 -9.387,161.033 -96.082,97.68 0,0 Z" /></g><g
           transform="translate(822.8183,829.0113)"
           id="g252"><path
             id="path254"
             style="fill:#a83336;fill-opacity:1;fill-rule:evenodd;stroke:none"
             d="m 0,0 c 39.176,-39.827 102.395,-90.534 181.917,-113.571 -5.528,21.325 -10.568,47.551 -14.2,79.619 -8.387,74.06 19.306,123.78 40.519,150.125 -42.828,5.657 -86.161,12.555 -126.365,22.433 C -9.387,161.032 -96.083,97.679 0,0" /></g><g
           transform="translate(822.8183,829.0113)"
           id="g256"><path
             id="path258"
             style="fill:none;stroke:#3d2d2e;stroke-width:2.83500004;stroke-linecap:round;stroke-linejoin:round;stroke-miterlimit:22.9260006;stroke-dasharray:none;stroke-opacity:1"
             d="m 0,0 c 39.176,-39.827 102.395,-90.534 181.917,-113.571 -5.528,21.325 -10.568,47.551 -14.2,79.619 -8.387,74.06 19.306,123.78 40.519,150.125 -42.828,5.657 -86.161,12.555 -126.365,22.433 C -9.387,161.032 -96.083,97.679 0,0 Z" /></g><g
           transform="translate(822.8183,829.0113)"
           id="g260"><path
             id="path262"
             style="fill:#f79b78;fill-opacity:1;fill-rule:evenodd;stroke:none"
             d="m 0,0 c 33.151,-33.702 83.521,-75.193 146.414,-101.117 -6.052,21.685 -11.664,48.911 -15.696,82.832 -24.374,-9.522 -52.468,0.817 -64.599,24.624 -12.92,25.354 -2.841,56.382 22.514,69.302 16.176,8.244 34.662,7.122 49.281,-1.354 6.195,19.73 14.757,35.939 23.28,48.681 -27.081,4.31 -53.831,9.375 -79.323,15.638 C -9.387,161.032 -96.083,97.679 0,0" /></g><g
           transform="translate(822.8183,829.0113)"
           id="g264"><path
             id="path266"
             style="fill:none;stroke:#3d2d2e;stroke-width:2.83500004;stroke-linecap:round;stroke-linejoin:round;stroke-miterlimit:22.9260006;stroke-dasharray:none;stroke-opacity:1"
             d="m 0,0 c 33.151,-33.702 83.521,-75.193 146.414,-101.117 -6.052,21.685 -11.664,48.911 -15.696,82.832 -24.374,-9.522 -52.468,0.817 -64.599,24.624 -12.92,25.354 -2.841,56.382 22.514,69.302 16.176,8.244 34.662,7.122 49.281,-1.354 6.195,19.73 14.757,35.939 23.28,48.681 -27.081,4.31 -53.831,9.375 -79.323,15.638 C -9.387,161.032 -96.083,97.679 0,0 Z" /></g><g
           transform="translate(721.811,1129.4161)"
           id="g268"><path
             id="path270"
             style="fill:#fcc9ae;fill-opacity:1;fill-rule:evenodd;stroke:none"
             d="m 0,0 c 10.563,-2.787 15.594,-18.441 11.235,-34.963 -4.359,-16.524 -16.456,-27.66 -27.02,-24.872 -10.564,2.786 -15.595,18.44 -11.236,34.963 C -22.662,-8.349 -10.564,2.787 0,0" /></g><g
           transform="translate(702.7958,1073.0392)"
           id="g272"><path
             id="path274"
             style="fill:#3d2d2e;fill-opacity:1;fill-rule:evenodd;stroke:none"
             d="m 0,0 c 1.211,-0.973 1.095,-3.127 -0.259,-4.812 -1.354,-1.685 -3.432,-2.262 -4.643,-1.289 -1.212,0.973 -1.096,3.127 0.258,4.812 C -3.29,0.396 -1.211,0.973 0,0" /></g><g
           transform="translate(717.1743,1132.382)"
           id="g276"><path
             id="path278"
             style="fill:#3d2d2e;fill-opacity:1;fill-rule:evenodd;stroke:none"
             d="M 0,0 C 1.975,0.375 3.999,-1.548 4.521,-4.296 5.042,-7.044 3.865,-9.575 1.89,-9.95 -0.085,-10.325 -2.109,-8.402 -2.631,-5.654 -3.153,-2.907 -1.975,-0.375 0,0" /></g><g
           transform="translate(1006.2807,1377.7448)"
           id="g280"><path
             id="path282"
             style="fill:#ffffff;fill-opacity:1;fill-rule:evenodd;stroke:none"
             d="M 0,0 C 2.353,0.74 4.94,-0.821 5.778,-3.488 6.618,-6.155 5.39,-8.917 3.037,-9.656 0.685,-10.396 -1.903,-8.834 -2.742,-6.167 -3.58,-3.501 -2.353,-0.74 0,0" /></g><g
           transform="translate(1217.641,1346.9132)"
           id="g284"><path
             id="path286"
             style="fill:#ffffff;fill-opacity:1;fill-rule:evenodd;stroke:none"
             d="M 0,0 C 1.346,0.423 2.826,-0.47 3.306,-1.996 3.785,-3.521 3.084,-5.1 1.737,-5.524 0.392,-5.947 -1.089,-5.054 -1.568,-3.528 -2.049,-2.002 -1.347,-0.423 0,0" /></g><g
           transform="translate(428.1899,1594.2579)"
           id="g288"><path
             id="path290"
             style="fill:#3d2d2e;fill-opacity:1;fill-rule:evenodd;stroke:none"
             d="M 0,0 C 13.087,0 23.762,10.673 23.762,23.761 23.762,36.849 13.087,47.522 0,47.522 -13.087,47.522 -23.762,36.849 -23.762,23.761 -23.762,10.673 -13.087,0 0,0" /></g><g
           transform="translate(450.1323,1014.0206)"
           id="g292"><path
             id="path294"
             style="fill:#3d2d2e;fill-opacity:1;fill-rule:evenodd;stroke:none"
             d="m 0,0 c 12.069,0 21.913,9.844 21.913,21.914 0,12.069 -9.844,21.913 -21.913,21.913 -12.07,0 -21.914,-9.844 -21.914,-21.913 C -21.914,9.844 -12.07,0 0,0" /></g><g
           transform="translate(679.9057,917.9205)"
           id="g296"><path
             id="path298"
             style="fill:#3d2d2e;fill-opacity:1;fill-rule:evenodd;stroke:none"
             d="m 0,0 c 12.069,0 21.913,9.844 21.913,21.914 0,12.07 -9.844,21.914 -21.913,21.914 -12.069,0 -21.914,-9.844 -21.914,-21.914 C -21.914,9.844 -12.069,0 0,0" /></g><g
           transform="translate(941.0659,1817.0187)"
           id="g300"><path
             id="path302"
             style="fill:#3d2d2e;fill-opacity:1;fill-rule:evenodd;stroke:none"
             d="m 0,0 c 10.07,0 18.283,8.213 18.283,18.283 0,10.07 -8.213,18.283 -18.283,18.283 -10.07,0 -18.283,-8.213 -18.283,-18.283 C -18.283,8.213 -10.07,0 0,0" /></g><g
           transform="translate(1313.6986,1551.1901)"
           id="g304"><path
             id="path306"
             style="fill:#3d2d2e;fill-opacity:1;fill-rule:evenodd;stroke:none"
             d="m 0,0 c 11.616,0 21.091,9.474 21.091,21.091 0,11.617 -9.475,21.092 -21.091,21.092 -11.617,0 -21.091,-9.475 -21.091,-21.092 C -21.091,9.474 -11.617,0 0,0" /></g><g
           transform="translate(1396.889,1323.3429)"
           id="g308"><path
             id="path310"
             style="fill:#3d2d2e;fill-opacity:1;fill-rule:evenodd;stroke:none"
             d="m 0,0 c 11.616,0 21.091,9.474 21.091,21.091 0,11.617 -9.475,21.092 -21.091,21.092 -11.617,0 -21.091,-9.475 -21.091,-21.092 C -21.091,9.474 -11.617,0 0,0" /></g></g></g></g></svg>